<mxfile host="65bd71144e" modified="2020-10-10T16:14:12.029Z" agent="5.0 (Macintosh; Intel Mac OS X 10_15_6) AppleWebKit/537.36 (KHTML, like Gecko) Code/1.50.0 Chrome/83.0.4103.122 Electron/9.2.1 Safari/537.36" etag="nUWNb_7nfLP8-NpP0UOl" version="13.6.5" pages="7">
    <diagram id="DKle4bozhRTFAYGgEszF" name="Andrdoid 架构">
        <mxGraphModel dx="954" dy="685" grid="1" gridSize="10" guides="1" tooltips="1" connect="1" arrows="1" fold="1" page="1" pageScale="1" pageWidth="827" pageHeight="1169" math="0" shadow="0">
            <root>
                <mxCell id="0"/>
                <mxCell id="1" parent="0"/>
                <mxCell id="dgGH-suKxR4S43odR1OD-21" value="" style="group" parent="1" vertex="1" connectable="0">
                    <mxGeometry x="120" y="70" width="540" height="520" as="geometry"/>
                </mxCell>
                <mxCell id="2" value="app" style="rounded=0;whiteSpace=wrap;html=1;" parent="dgGH-suKxR4S43odR1OD-21" vertex="1">
                    <mxGeometry x="10" width="530" height="60" as="geometry"/>
                </mxCell>
                <mxCell id="3" value="&lt;span&gt;业务n&lt;/span&gt;" style="rounded=0;whiteSpace=wrap;html=1;" parent="dgGH-suKxR4S43odR1OD-21" vertex="1">
                    <mxGeometry x="410" y="140" width="120" height="60" as="geometry"/>
                </mxCell>
                <mxCell id="4" value="&lt;span&gt;业务2&lt;br&gt;&lt;/span&gt;" style="rounded=0;whiteSpace=wrap;html=1;" parent="dgGH-suKxR4S43odR1OD-21" vertex="1">
                    <mxGeometry x="280" y="140" width="120" height="60" as="geometry"/>
                </mxCell>
                <mxCell id="5" value="&lt;span&gt;业务3&lt;br&gt;&lt;/span&gt;" style="rounded=0;whiteSpace=wrap;html=1;" parent="dgGH-suKxR4S43odR1OD-21" vertex="1">
                    <mxGeometry x="150" y="140" width="120" height="60" as="geometry"/>
                </mxCell>
                <mxCell id="6" value="业务1(组件)" style="rounded=0;whiteSpace=wrap;html=1;" parent="dgGH-suKxR4S43odR1OD-21" vertex="1">
                    <mxGeometry x="10" y="140" width="120" height="60" as="geometry"/>
                </mxCell>
                <mxCell id="7" value="" style="shape=flexArrow;endArrow=classic;startArrow=classic;html=1;exitX=0.5;exitY=0;exitDx=0;exitDy=0;entryX=0.25;entryY=1;entryDx=0;entryDy=0;" parent="dgGH-suKxR4S43odR1OD-21" source="6" target="2" edge="1">
                    <mxGeometry width="50" height="50" relative="1" as="geometry">
                        <mxPoint x="35" y="120" as="sourcePoint"/>
                        <mxPoint x="70" y="76" as="targetPoint"/>
                    </mxGeometry>
                </mxCell>
                <mxCell id="8" value="" style="shape=flexArrow;endArrow=classic;startArrow=classic;html=1;entryX=0.5;entryY=1;entryDx=0;entryDy=0;" parent="dgGH-suKxR4S43odR1OD-21" source="5" target="2" edge="1">
                    <mxGeometry width="50" height="50" relative="1" as="geometry">
                        <mxPoint x="80" y="150" as="sourcePoint"/>
                        <mxPoint x="310" y="64" as="targetPoint"/>
                    </mxGeometry>
                </mxCell>
                <mxCell id="9" value="" style="shape=flexArrow;endArrow=classic;startArrow=classic;html=1;entryX=0.75;entryY=1;entryDx=0;entryDy=0;" parent="dgGH-suKxR4S43odR1OD-21" target="2" edge="1">
                    <mxGeometry width="50" height="50" relative="1" as="geometry">
                        <mxPoint x="340.00046884767653" y="135.98" as="sourcePoint"/>
                        <mxPoint x="345" y="90" as="targetPoint"/>
                    </mxGeometry>
                </mxCell>
                <mxCell id="10" value="" style="shape=flexArrow;endArrow=classic;startArrow=classic;html=1;entryX=0.952;entryY=0.983;entryDx=0;entryDy=0;entryPerimeter=0;" parent="dgGH-suKxR4S43odR1OD-21" target="2" edge="1">
                    <mxGeometry width="50" height="50" relative="1" as="geometry">
                        <mxPoint x="467.5204688476765" y="135.98" as="sourcePoint"/>
                        <mxPoint x="472.47" y="69.99999999999997" as="targetPoint"/>
                    </mxGeometry>
                </mxCell>
                <mxCell id="13" value="common" style="rounded=0;whiteSpace=wrap;html=1;" parent="dgGH-suKxR4S43odR1OD-21" vertex="1">
                    <mxGeometry x="10" y="290" width="510" height="60" as="geometry"/>
                </mxCell>
                <mxCell id="14" value="network" style="rounded=0;whiteSpace=wrap;html=1;" parent="dgGH-suKxR4S43odR1OD-21" vertex="1">
                    <mxGeometry x="10" y="370" width="510" height="60" as="geometry"/>
                </mxCell>
                <mxCell id="15" value="base" style="rounded=0;whiteSpace=wrap;html=1;" parent="dgGH-suKxR4S43odR1OD-21" vertex="1">
                    <mxGeometry y="460" width="510" height="60" as="geometry"/>
                </mxCell>
                <mxCell id="16" value="" style="shape=flexArrow;endArrow=classic;html=1;exitX=0.643;exitY=1.067;exitDx=0;exitDy=0;exitPerimeter=0;entryX=0.277;entryY=0.017;entryDx=0;entryDy=0;entryPerimeter=0;" parent="dgGH-suKxR4S43odR1OD-21" source="6" target="13" edge="1">
                    <mxGeometry width="50" height="50" relative="1" as="geometry">
                        <mxPoint x="270" y="310" as="sourcePoint"/>
                        <mxPoint x="320" y="260" as="targetPoint"/>
                    </mxGeometry>
                </mxCell>
                <mxCell id="17" value="" style="shape=flexArrow;endArrow=classic;html=1;exitX=0.5;exitY=1;exitDx=0;exitDy=0;entryX=0.5;entryY=0;entryDx=0;entryDy=0;" parent="dgGH-suKxR4S43odR1OD-21" source="5" target="13" edge="1">
                    <mxGeometry width="50" height="50" relative="1" as="geometry">
                        <mxPoint x="190.0000000000001" y="200" as="sourcePoint"/>
                        <mxPoint x="254.11" y="277" as="targetPoint"/>
                    </mxGeometry>
                </mxCell>
                <mxCell id="19" value="" style="shape=flexArrow;endArrow=classic;html=1;exitX=0.402;exitY=0.983;exitDx=0;exitDy=0;entryX=0.902;entryY=0;entryDx=0;entryDy=0;exitPerimeter=0;entryPerimeter=0;" parent="dgGH-suKxR4S43odR1OD-21" source="3" target="13" edge="1">
                    <mxGeometry width="50" height="50" relative="1" as="geometry">
                        <mxPoint x="442.5" y="220" as="sourcePoint"/>
                        <mxPoint x="497.5" y="300" as="targetPoint"/>
                    </mxGeometry>
                </mxCell>
                <mxCell id="20" value="" style="shape=flexArrow;endArrow=classic;html=1;exitX=0.5;exitY=1;exitDx=0;exitDy=0;entryX=0.75;entryY=0;entryDx=0;entryDy=0;" parent="dgGH-suKxR4S43odR1OD-21" source="4" target="13" edge="1">
                    <mxGeometry width="50" height="50" relative="1" as="geometry">
                        <mxPoint x="340" y="220" as="sourcePoint"/>
                        <mxPoint x="370" y="280" as="targetPoint"/>
                    </mxGeometry>
                </mxCell>
                <mxCell id="21" value="Arouter等" style="rounded=0;whiteSpace=wrap;html=1;fillColor=#008a00;strokeColor=#005700;fontColor=#ffffff;" parent="dgGH-suKxR4S43odR1OD-21" vertex="1">
                    <mxGeometry x="31" y="295" width="120" height="50" as="geometry"/>
                </mxCell>
            </root>
        </mxGraphModel>
    </diagram>
    <diagram id="rTZOP9GTd8wRtzX4U8O3" name="设计原则">
        <mxGraphModel dx="1762" dy="1021" grid="1" gridSize="10" guides="1" tooltips="1" connect="1" arrows="1" fold="1" page="1" pageScale="1" pageWidth="827" pageHeight="1169" math="0" shadow="0">
            <root>
                <mxCell id="KIQKfV6uF5u1Gh9udj2H-0"/>
                <mxCell id="KIQKfV6uF5u1Gh9udj2H-1" parent="KIQKfV6uF5u1Gh9udj2H-0"/>
                <mxCell id="KIQKfV6uF5u1Gh9udj2H-2" value="父类" style="rounded=0;whiteSpace=wrap;html=1;" parent="KIQKfV6uF5u1Gh9udj2H-1" vertex="1">
                    <mxGeometry x="40" y="50" width="120" height="60" as="geometry"/>
                </mxCell>
                <mxCell id="KIQKfV6uF5u1Gh9udj2H-3" value="子类（开闭原则）" style="rounded=0;whiteSpace=wrap;html=1;" parent="KIQKfV6uF5u1Gh9udj2H-1" vertex="1">
                    <mxGeometry x="40" y="220" width="120" height="60" as="geometry"/>
                </mxCell>
                <mxCell id="KIQKfV6uF5u1Gh9udj2H-4" value="" style="shape=flexArrow;endArrow=classic;html=1;entryX=0.5;entryY=1;entryDx=0;entryDy=0;exitX=0.5;exitY=0;exitDx=0;exitDy=0;" parent="KIQKfV6uF5u1Gh9udj2H-1" source="KIQKfV6uF5u1Gh9udj2H-3" target="KIQKfV6uF5u1Gh9udj2H-2" edge="1">
                    <mxGeometry width="50" height="50" relative="1" as="geometry">
                        <mxPoint x="390" y="380" as="sourcePoint"/>
                        <mxPoint x="440" y="330" as="targetPoint"/>
                    </mxGeometry>
                </mxCell>
                <mxCell id="KIQKfV6uF5u1Gh9udj2H-12" value="里氏替换原则，种瓜得瓜" style="edgeLabel;html=1;align=center;verticalAlign=middle;resizable=0;points=[];" parent="KIQKfV6uF5u1Gh9udj2H-4" vertex="1" connectable="0">
                    <mxGeometry x="-0.05" y="1" relative="1" as="geometry">
                        <mxPoint as="offset"/>
                    </mxGeometry>
                </mxCell>
                <mxCell id="KIQKfV6uF5u1Gh9udj2H-5" value="颜色（成员）" style="rounded=0;whiteSpace=wrap;html=1;" parent="KIQKfV6uF5u1Gh9udj2H-1" vertex="1">
                    <mxGeometry x="230" y="20" width="120" height="60" as="geometry"/>
                </mxCell>
                <mxCell id="KIQKfV6uF5u1Gh9udj2H-6" value="" style="rounded=0;whiteSpace=wrap;html=1;" parent="KIQKfV6uF5u1Gh9udj2H-1" vertex="1">
                    <mxGeometry x="560" y="340" width="120" height="60" as="geometry"/>
                </mxCell>
                <mxCell id="KIQKfV6uF5u1Gh9udj2H-7" value="" style="rounded=0;whiteSpace=wrap;html=1;" parent="KIQKfV6uF5u1Gh9udj2H-1" vertex="1">
                    <mxGeometry x="550" y="250" width="120" height="60" as="geometry"/>
                </mxCell>
                <mxCell id="KIQKfV6uF5u1Gh9udj2H-8" value="接口，小功能" style="rounded=0;whiteSpace=wrap;html=1;" parent="KIQKfV6uF5u1Gh9udj2H-1" vertex="1">
                    <mxGeometry x="540" y="140" width="120" height="60" as="geometry"/>
                </mxCell>
                <mxCell id="KIQKfV6uF5u1Gh9udj2H-9" value="" style="endArrow=classic;html=1;entryX=0;entryY=0.75;entryDx=0;entryDy=0;exitX=1;exitY=0.25;exitDx=0;exitDy=0;" parent="KIQKfV6uF5u1Gh9udj2H-1" source="KIQKfV6uF5u1Gh9udj2H-3" target="KIQKfV6uF5u1Gh9udj2H-8" edge="1">
                    <mxGeometry width="50" height="50" relative="1" as="geometry">
                        <mxPoint x="170" y="210" as="sourcePoint"/>
                        <mxPoint x="440" y="330" as="targetPoint"/>
                    </mxGeometry>
                </mxCell>
                <mxCell id="KIQKfV6uF5u1Gh9udj2H-14" value="依赖倒置" style="edgeLabel;html=1;align=center;verticalAlign=middle;resizable=0;points=[];" parent="KIQKfV6uF5u1Gh9udj2H-9" vertex="1" connectable="0">
                    <mxGeometry x="-0.0874" y="-3" relative="1" as="geometry">
                        <mxPoint as="offset"/>
                    </mxGeometry>
                </mxCell>
                <mxCell id="KIQKfV6uF5u1Gh9udj2H-10" value="" style="endArrow=classic;html=1;exitX=1;exitY=0.25;exitDx=0;exitDy=0;" parent="KIQKfV6uF5u1Gh9udj2H-1" source="KIQKfV6uF5u1Gh9udj2H-3" target="KIQKfV6uF5u1Gh9udj2H-7" edge="1">
                    <mxGeometry width="50" height="50" relative="1" as="geometry">
                        <mxPoint x="170" y="220" as="sourcePoint"/>
                        <mxPoint x="330" y="175" as="targetPoint"/>
                    </mxGeometry>
                </mxCell>
                <mxCell id="KIQKfV6uF5u1Gh9udj2H-11" value="" style="endArrow=classic;html=1;entryX=0;entryY=0.5;entryDx=0;entryDy=0;exitX=1;exitY=0.5;exitDx=0;exitDy=0;" parent="KIQKfV6uF5u1Gh9udj2H-1" source="KIQKfV6uF5u1Gh9udj2H-3" target="KIQKfV6uF5u1Gh9udj2H-6" edge="1">
                    <mxGeometry width="50" height="50" relative="1" as="geometry">
                        <mxPoint x="170" y="230" as="sourcePoint"/>
                        <mxPoint x="330" y="237" as="targetPoint"/>
                    </mxGeometry>
                </mxCell>
                <mxCell id="KIQKfV6uF5u1Gh9udj2H-13" value="组合复用" style="endArrow=none;html=1;exitX=1.027;exitY=0.133;exitDx=0;exitDy=0;exitPerimeter=0;entryX=0.75;entryY=1;entryDx=0;entryDy=0;" parent="KIQKfV6uF5u1Gh9udj2H-1" source="KIQKfV6uF5u1Gh9udj2H-3" target="KIQKfV6uF5u1Gh9udj2H-5" edge="1">
                    <mxGeometry width="50" height="50" relative="1" as="geometry">
                        <mxPoint x="390" y="380" as="sourcePoint"/>
                        <mxPoint x="440" y="330" as="targetPoint"/>
                    </mxGeometry>
                </mxCell>
                <mxCell id="KIQKfV6uF5u1Gh9udj2H-15" value="接口最小化，接口隔离" style="text;html=1;align=center;verticalAlign=middle;resizable=0;points=[];autosize=1;" parent="KIQKfV6uF5u1Gh9udj2H-1" vertex="1">
                    <mxGeometry x="550" y="270" width="140" height="20" as="geometry"/>
                </mxCell>
                <mxCell id="KIQKfV6uF5u1Gh9udj2H-16" value="迪米特原则，只跟我认识朋友打交道" style="text;html=1;align=center;verticalAlign=middle;resizable=0;points=[];autosize=1;" parent="KIQKfV6uF5u1Gh9udj2H-1" vertex="1">
                    <mxGeometry x="30" y="340" width="210" height="20" as="geometry"/>
                </mxCell>
                <mxCell id="KIQKfV6uF5u1Gh9udj2H-20" value="" style="endArrow=none;dashed=1;html=1;" parent="KIQKfV6uF5u1Gh9udj2H-1" edge="1">
                    <mxGeometry width="50" height="50" relative="1" as="geometry">
                        <mxPoint x="440" y="520" as="sourcePoint"/>
                        <mxPoint x="440" y="10" as="targetPoint"/>
                    </mxGeometry>
                </mxCell>
            </root>
        </mxGraphModel>
    </diagram>
    <diagram id="mPgkY38R78zPmIVwVPrN" name="MVVM 新闻架构">
        <mxGraphModel dx="1762" dy="1021" grid="1" gridSize="10" guides="1" tooltips="1" connect="1" arrows="1" fold="1" page="1" pageScale="1" pageWidth="827" pageHeight="1169" math="0" shadow="0">
            <root>
                <mxCell id="1F-A1b4ldRTi4-3DTauU-0"/>
                <mxCell id="1F-A1b4ldRTi4-3DTauU-1" parent="1F-A1b4ldRTi4-3DTauU-0"/>
                <mxCell id="1F-A1b4ldRTi4-3DTauU-2" value="&lt;font style=&quot;font-size: 40px&quot;&gt;MVVM+ViewModel+DataBinding&lt;/font&gt;" style="text;html=1;align=center;verticalAlign=middle;resizable=0;points=[];autosize=1;fontStyle=1;fontFamily=Helvetica;fontSize=50;" parent="1F-A1b4ldRTi4-3DTauU-1" vertex="1">
                    <mxGeometry x="60" y="60" width="620" height="70" as="geometry"/>
                </mxCell>
                <mxCell id="1F-A1b4ldRTi4-3DTauU-50" value="" style="group" parent="1F-A1b4ldRTi4-3DTauU-1" vertex="1" connectable="0">
                    <mxGeometry x="90" y="150" width="1626" height="908" as="geometry"/>
                </mxCell>
                <mxCell id="1F-A1b4ldRTi4-3DTauU-4" value="MvvmBaseViewModel &lt;V,M extends SuperBaseModel&gt;" style="swimlane;fontStyle=0;childLayout=stackLayout;horizontal=1;startSize=26;fillColor=none;horizontalStack=0;resizeParent=1;resizeParentMax=0;resizeLast=0;collapsible=1;marginBottom=0;fontFamily=Helvetica;fontSize=20;" parent="1F-A1b4ldRTi4-3DTauU-50" vertex="1">
                    <mxGeometry x="5" y="330" width="520" height="78" as="geometry"/>
                </mxCell>
                <mxCell id="1F-A1b4ldRTi4-3DTauU-15" value="Extends" style="endArrow=block;endSize=16;endFill=0;html=1;fontFamily=Helvetica;fontSize=20;entryX=0.509;entryY=0.771;entryDx=0;entryDy=0;entryPerimeter=0;" parent="1F-A1b4ldRTi4-3DTauU-4" target="1F-A1b4ldRTi4-3DTauU-10" edge="1">
                    <mxGeometry width="160" relative="1" as="geometry">
                        <mxPoint x="260" as="sourcePoint"/>
                        <mxPoint x="420" as="targetPoint"/>
                    </mxGeometry>
                </mxCell>
                <mxCell id="1F-A1b4ldRTi4-3DTauU-5" value="private Reference&lt;V&gt; mUIRef;" style="text;strokeColor=none;fillColor=none;align=left;verticalAlign=top;spacingLeft=4;spacingRight=4;overflow=hidden;rotatable=0;points=[[0,0.5],[1,0.5]];portConstraint=eastwest;" parent="1F-A1b4ldRTi4-3DTauU-4" vertex="1">
                    <mxGeometry y="26" width="520" height="26" as="geometry"/>
                </mxCell>
                <mxCell id="1F-A1b4ldRTi4-3DTauU-6" value="protected M model;&#10;" style="text;strokeColor=none;fillColor=none;align=left;verticalAlign=top;spacingLeft=4;spacingRight=4;overflow=hidden;rotatable=0;points=[[0,0.5],[1,0.5]];portConstraint=eastwest;" parent="1F-A1b4ldRTi4-3DTauU-4" vertex="1">
                    <mxGeometry y="52" width="520" height="26" as="geometry"/>
                </mxCell>
                <mxCell id="1F-A1b4ldRTi4-3DTauU-28" value="" style="group" parent="1F-A1b4ldRTi4-3DTauU-50" vertex="1" connectable="0">
                    <mxGeometry x="4" y="520" width="770" height="140" as="geometry"/>
                </mxCell>
                <mxCell id="1F-A1b4ldRTi4-3DTauU-27" value="" style="group" parent="1F-A1b4ldRTi4-3DTauU-28" vertex="1" connectable="0">
                    <mxGeometry width="770" height="140" as="geometry"/>
                </mxCell>
                <mxCell id="1F-A1b4ldRTi4-3DTauU-22" value="MvvmActivity &lt;V extends ViewDataBinding,VM extends MvvmBaseViewModel&gt;" style="swimlane;fontStyle=1;align=center;verticalAlign=top;childLayout=stackLayout;horizontal=1;startSize=26;horizontalStack=0;resizeParent=1;resizeParentMax=0;resizeLast=0;collapsible=1;marginBottom=0;fontFamily=Helvetica;fontSize=20;" parent="1F-A1b4ldRTi4-3DTauU-27" vertex="1">
                    <mxGeometry width="770" height="140" as="geometry"/>
                </mxCell>
                <mxCell id="1F-A1b4ldRTi4-3DTauU-23" value="protected VM viewModel;" style="text;strokeColor=none;fillColor=none;align=left;verticalAlign=top;spacingLeft=4;spacingRight=4;overflow=hidden;rotatable=0;points=[[0,0.5],[1,0.5]];portConstraint=eastwest;" parent="1F-A1b4ldRTi4-3DTauU-22" vertex="1">
                    <mxGeometry y="26" width="770" height="26" as="geometry"/>
                </mxCell>
                <mxCell id="1F-A1b4ldRTi4-3DTauU-24" value="" style="line;strokeWidth=1;fillColor=none;align=left;verticalAlign=middle;spacingTop=-1;spacingLeft=3;spacingRight=3;rotatable=0;labelPosition=right;points=[];portConstraint=eastwest;" parent="1F-A1b4ldRTi4-3DTauU-22" vertex="1">
                    <mxGeometry y="52" width="770" height="8" as="geometry"/>
                </mxCell>
                <mxCell id="1F-A1b4ldRTi4-3DTauU-25" value="protected V viewDataBinding;&#10;&#10;其他公共的属性提取" style="text;strokeColor=none;fillColor=none;align=left;verticalAlign=top;spacingLeft=4;spacingRight=4;overflow=hidden;rotatable=0;points=[[0,0.5],[1,0.5]];portConstraint=eastwest;" parent="1F-A1b4ldRTi4-3DTauU-22" vertex="1">
                    <mxGeometry y="60" width="770" height="80" as="geometry"/>
                </mxCell>
                <mxCell id="1F-A1b4ldRTi4-3DTauU-36" value="MainActivity extends MvvmActivity&lt;ActivityMainBinding, MvvmBaseViewModel&gt;" style="swimlane;fontStyle=0;childLayout=stackLayout;horizontal=1;startSize=26;fillColor=none;horizontalStack=0;resizeParent=1;resizeParentMax=0;resizeLast=0;collapsible=1;marginBottom=0;fontFamily=Helvetica;fontSize=20;" parent="1F-A1b4ldRTi4-3DTauU-50" vertex="1">
                    <mxGeometry y="830" width="770" height="78" as="geometry"/>
                </mxCell>
                <mxCell id="1F-A1b4ldRTi4-3DTauU-38" value="+ field: type" style="text;strokeColor=none;fillColor=none;align=left;verticalAlign=top;spacingLeft=4;spacingRight=4;overflow=hidden;rotatable=0;points=[[0,0.5],[1,0.5]];portConstraint=eastwest;" parent="1F-A1b4ldRTi4-3DTauU-36" vertex="1">
                    <mxGeometry y="26" width="770" height="26" as="geometry"/>
                </mxCell>
                <mxCell id="1F-A1b4ldRTi4-3DTauU-39" value="+ field: type" style="text;strokeColor=none;fillColor=none;align=left;verticalAlign=top;spacingLeft=4;spacingRight=4;overflow=hidden;rotatable=0;points=[[0,0.5],[1,0.5]];portConstraint=eastwest;" parent="1F-A1b4ldRTi4-3DTauU-36" vertex="1">
                    <mxGeometry y="52" width="770" height="26" as="geometry"/>
                </mxCell>
                <mxCell id="1F-A1b4ldRTi4-3DTauU-41" value="Extends" style="endArrow=block;endSize=16;endFill=0;html=1;fontFamily=Helvetica;fontSize=20;" parent="1F-A1b4ldRTi4-3DTauU-36" target="1F-A1b4ldRTi4-3DTauU-25" edge="1">
                    <mxGeometry width="160" relative="1" as="geometry">
                        <mxPoint x="384.8" as="sourcePoint"/>
                        <mxPoint x="384.50000000000006" y="-129.99599999999987" as="targetPoint"/>
                    </mxGeometry>
                </mxCell>
                <mxCell id="1F-A1b4ldRTi4-3DTauU-42" value="NewsListFragment extends MvvmFragment&lt;NewsFragmentBinding, NewsListViewModel&gt;" style="swimlane;fontStyle=0;childLayout=stackLayout;horizontal=1;startSize=26;fillColor=none;horizontalStack=0;resizeParent=1;resizeParentMax=0;resizeLast=0;collapsible=1;marginBottom=0;fontFamily=Helvetica;fontSize=20;" parent="1F-A1b4ldRTi4-3DTauU-50" vertex="1">
                    <mxGeometry x="806" y="820" width="820" height="78" as="geometry"/>
                </mxCell>
                <mxCell id="1F-A1b4ldRTi4-3DTauU-43" value="+ field: type" style="text;strokeColor=none;fillColor=none;align=left;verticalAlign=top;spacingLeft=4;spacingRight=4;overflow=hidden;rotatable=0;points=[[0,0.5],[1,0.5]];portConstraint=eastwest;" parent="1F-A1b4ldRTi4-3DTauU-42" vertex="1">
                    <mxGeometry y="26" width="820" height="26" as="geometry"/>
                </mxCell>
                <mxCell id="1F-A1b4ldRTi4-3DTauU-45" value="+ field: type" style="text;strokeColor=none;fillColor=none;align=left;verticalAlign=top;spacingLeft=4;spacingRight=4;overflow=hidden;rotatable=0;points=[[0,0.5],[1,0.5]];portConstraint=eastwest;" parent="1F-A1b4ldRTi4-3DTauU-42" vertex="1">
                    <mxGeometry y="52" width="820" height="26" as="geometry"/>
                </mxCell>
                <mxCell id="1F-A1b4ldRTi4-3DTauU-46" value="Extends" style="endArrow=block;endSize=16;endFill=0;html=1;fontFamily=Helvetica;fontSize=20;entryX=0.483;entryY=1.005;entryDx=0;entryDy=0;entryPerimeter=0;" parent="1F-A1b4ldRTi4-3DTauU-42" target="1F-A1b4ldRTi4-3DTauU-34" edge="1">
                    <mxGeometry width="160" relative="1" as="geometry">
                        <mxPoint x="384.8" as="sourcePoint"/>
                        <mxPoint x="384.50000000000006" y="-129.99599999999987" as="targetPoint"/>
                    </mxGeometry>
                </mxCell>
                <mxCell id="1F-A1b4ldRTi4-3DTauU-49" value="" style="group" parent="1F-A1b4ldRTi4-3DTauU-50" vertex="1" connectable="0">
                    <mxGeometry x="115" width="1470" height="806" as="geometry"/>
                </mxCell>
                <mxCell id="1F-A1b4ldRTi4-3DTauU-3" value="&lt;p style=&quot;margin: 0px ; margin-top: 4px ; text-align: center&quot;&gt;&lt;i&gt;&amp;lt;&amp;lt;Interface&amp;gt;&amp;gt;&lt;/i&gt;&lt;br&gt;&lt;span style=&quot;background-color: rgb(43 , 43 , 43) ; color: rgb(169 , 183 , 198) ; font-family: &amp;#34;menlo&amp;#34; ; font-size: 12pt ; text-align: left&quot;&gt;IMvvmBaseViewModel&lt;/span&gt;&lt;/p&gt;&lt;hr size=&quot;1&quot;&gt;&lt;p style=&quot;margin: 0px ; margin-left: 4px&quot;&gt;&lt;/p&gt;&lt;pre style=&quot;background-color: rgb(43 , 43 , 43)&quot;&gt;&lt;div style=&quot;color: rgb(169 , 183 , 198) ; font-family: &amp;#34;menlo&amp;#34; ; font-size: 12pt ; text-align: center&quot;&gt;&lt;span style=&quot;font-size: 12pt ; white-space: nowrap ; color: rgb(204 , 120 , 50)&quot;&gt;void &lt;/span&gt;&lt;span style=&quot;font-size: 12pt ; white-space: nowrap ; color: rgb(255 , 198 , 109)&quot;&gt;attachUI&lt;/span&gt;&lt;span style=&quot;font-size: 12pt ; white-space: nowrap&quot;&gt;(&lt;/span&gt;&lt;span style=&quot;font-size: 12pt ; white-space: nowrap ; color: rgb(80 , 120 , 116)&quot;&gt;V &lt;/span&gt;&lt;span style=&quot;font-size: 12pt ; white-space: nowrap&quot;&gt;view)&lt;/span&gt;&lt;span style=&quot;font-size: 12pt ; white-space: nowrap ; color: rgb(204 , 120 , 50)&quot;&gt;;&lt;/span&gt;&lt;/div&gt;&lt;div style=&quot;text-align: center&quot;&gt;&lt;font color=&quot;#cc7832&quot; face=&quot;menlo&quot;&gt;&lt;span style=&quot;font-size: 16px&quot;&gt;&lt;br&gt;&lt;/span&gt;&lt;/font&gt;&lt;/div&gt;&lt;span style=&quot;color: rgb(80 , 120 , 116) ; font-family: &amp;#34;menlo&amp;#34; ; font-size: 12pt&quot;&gt;&lt;div style=&quot;text-align: center&quot;&gt;&lt;span style=&quot;white-space: nowrap ; font-size: 12pt&quot;&gt;V &lt;/span&gt;&lt;span style=&quot;white-space: nowrap ; color: rgb(255 , 198 , 109) ; font-size: 12pt&quot;&gt;getPageView&lt;/span&gt;&lt;font color=&quot;#a9b7c6&quot; face=&quot;menlo&quot; style=&quot;font-size: 12px ; white-space: nowrap&quot;&gt;&lt;span style=&quot;font-size: 12pt&quot;&gt;()&lt;/span&gt;&lt;/font&gt;&lt;span style=&quot;white-space: nowrap ; color: rgb(204 , 120 , 50) ; font-size: 12pt&quot;&gt;;&lt;/span&gt;&lt;/div&gt;&lt;/span&gt;&lt;div style=&quot;text-align: center&quot;&gt;&lt;font color=&quot;#cc7832&quot; face=&quot;menlo&quot;&gt;&lt;span style=&quot;font-size: 16px&quot;&gt;&lt;br&gt;&lt;/span&gt;&lt;/font&gt;&lt;/div&gt;&lt;span style=&quot;color: rgb(204 , 120 , 50) ; font-family: &amp;#34;menlo&amp;#34; ; font-size: 12pt&quot;&gt;&lt;div style=&quot;text-align: center&quot;&gt;&lt;span style=&quot;white-space: nowrap ; font-size: 12pt&quot;&gt;boolean &lt;/span&gt;&lt;span style=&quot;white-space: nowrap ; color: rgb(255 , 198 , 109) ; font-size: 12pt&quot;&gt;isUIAttached&lt;/span&gt;&lt;font color=&quot;#a9b7c6&quot; face=&quot;menlo&quot; style=&quot;font-size: 12px ; white-space: nowrap&quot;&gt;&lt;span style=&quot;font-size: 12pt&quot;&gt;()&lt;/span&gt;&lt;/font&gt;&lt;span style=&quot;white-space: nowrap ; font-size: 12pt&quot;&gt;;&lt;/span&gt;&lt;/div&gt;&lt;/span&gt;&lt;div style=&quot;text-align: center&quot;&gt;&lt;font color=&quot;#cc7832&quot; face=&quot;menlo&quot;&gt;&lt;span style=&quot;font-size: 16px&quot;&gt;&lt;br&gt;&lt;/span&gt;&lt;/font&gt;&lt;/div&gt;&lt;span style=&quot;color: rgb(204 , 120 , 50) ; font-family: &amp;#34;menlo&amp;#34; ; font-size: 12pt&quot;&gt;&lt;div style=&quot;text-align: center&quot;&gt;&lt;span style=&quot;white-space: nowrap ; font-size: 12pt&quot;&gt;void &lt;/span&gt;&lt;span style=&quot;white-space: nowrap ; color: rgb(255 , 198 , 109) ; font-size: 12pt&quot;&gt;detachUI&lt;/span&gt;&lt;font color=&quot;#a9b7c6&quot; face=&quot;menlo&quot; style=&quot;font-size: 12px ; white-space: nowrap&quot;&gt;&lt;span style=&quot;font-size: 12pt&quot;&gt;()&lt;/span&gt;&lt;/font&gt;&lt;span style=&quot;white-space: nowrap ; font-size: 12pt&quot;&gt;;&lt;/span&gt;&lt;/div&gt;&lt;/span&gt;&lt;/pre&gt;" style="verticalAlign=top;align=left;overflow=fill;fontSize=12;fontFamily=Helvetica;html=1;" parent="1F-A1b4ldRTi4-3DTauU-49" vertex="1">
                    <mxGeometry x="320" width="360" height="210" as="geometry"/>
                </mxCell>
                <mxCell id="1F-A1b4ldRTi4-3DTauU-10" value="androidx.lifecycle.ViewModel" style="swimlane;fontStyle=1;align=center;verticalAlign=top;childLayout=stackLayout;horizontal=1;startSize=26;horizontalStack=0;resizeParent=1;resizeParentMax=0;resizeLast=0;collapsible=1;marginBottom=0;fontFamily=Helvetica;fontSize=20;" parent="1F-A1b4ldRTi4-3DTauU-49" vertex="1">
                    <mxGeometry y="170" width="300" height="34" as="geometry"/>
                </mxCell>
                <mxCell id="1F-A1b4ldRTi4-3DTauU-12" value="" style="line;strokeWidth=1;fillColor=none;align=left;verticalAlign=middle;spacingTop=-1;spacingLeft=3;spacingRight=3;rotatable=0;labelPosition=right;points=[];portConstraint=eastwest;" parent="1F-A1b4ldRTi4-3DTauU-10" vertex="1">
                    <mxGeometry y="26" width="300" height="8" as="geometry"/>
                </mxCell>
                <mxCell id="1F-A1b4ldRTi4-3DTauU-21" value="Use" style="endArrow=open;endSize=12;dashed=1;html=1;fontFamily=Helvetica;fontSize=20;" parent="1F-A1b4ldRTi4-3DTauU-49" source="1F-A1b4ldRTi4-3DTauU-22" edge="1">
                    <mxGeometry width="160" relative="1" as="geometry">
                        <mxPoint x="390" y="578" as="sourcePoint"/>
                        <mxPoint x="320" y="408" as="targetPoint"/>
                    </mxGeometry>
                </mxCell>
                <mxCell id="1F-A1b4ldRTi4-3DTauU-29" value="" style="group" parent="1F-A1b4ldRTi4-3DTauU-49" vertex="1" connectable="0">
                    <mxGeometry x="700" y="520" width="770" height="140" as="geometry"/>
                </mxCell>
                <mxCell id="1F-A1b4ldRTi4-3DTauU-30" value="" style="group" parent="1F-A1b4ldRTi4-3DTauU-29" vertex="1" connectable="0">
                    <mxGeometry width="770" height="140" as="geometry"/>
                </mxCell>
                <mxCell id="1F-A1b4ldRTi4-3DTauU-31" value="MvvmFragment &lt;V extends ViewDataBinding,VM extends MvvmBaseViewModel&gt;" style="swimlane;fontStyle=1;align=center;verticalAlign=top;childLayout=stackLayout;horizontal=1;startSize=26;horizontalStack=0;resizeParent=1;resizeParentMax=0;resizeLast=0;collapsible=1;marginBottom=0;fontFamily=Helvetica;fontSize=20;" parent="1F-A1b4ldRTi4-3DTauU-30" vertex="1">
                    <mxGeometry width="770" height="140" as="geometry"/>
                </mxCell>
                <mxCell id="1F-A1b4ldRTi4-3DTauU-32" value="protected VM viewModel;" style="text;strokeColor=none;fillColor=none;align=left;verticalAlign=top;spacingLeft=4;spacingRight=4;overflow=hidden;rotatable=0;points=[[0,0.5],[1,0.5]];portConstraint=eastwest;" parent="1F-A1b4ldRTi4-3DTauU-31" vertex="1">
                    <mxGeometry y="26" width="770" height="26" as="geometry"/>
                </mxCell>
                <mxCell id="1F-A1b4ldRTi4-3DTauU-33" value="" style="line;strokeWidth=1;fillColor=none;align=left;verticalAlign=middle;spacingTop=-1;spacingLeft=3;spacingRight=3;rotatable=0;labelPosition=right;points=[];portConstraint=eastwest;" parent="1F-A1b4ldRTi4-3DTauU-31" vertex="1">
                    <mxGeometry y="52" width="770" height="8" as="geometry"/>
                </mxCell>
                <mxCell id="1F-A1b4ldRTi4-3DTauU-34" value="protected V viewDataBinding;&#10;&#10;其他公共的属性提取" style="text;strokeColor=none;fillColor=none;align=left;verticalAlign=top;spacingLeft=4;spacingRight=4;overflow=hidden;rotatable=0;points=[[0,0.5],[1,0.5]];portConstraint=eastwest;" parent="1F-A1b4ldRTi4-3DTauU-31" vertex="1">
                    <mxGeometry y="60" width="770" height="80" as="geometry"/>
                </mxCell>
                <mxCell id="1F-A1b4ldRTi4-3DTauU-16" value="" style="endArrow=block;dashed=1;endFill=0;endSize=12;html=1;fontFamily=Helvetica;fontSize=20;entryX=0.48;entryY=1.015;entryDx=0;entryDy=0;entryPerimeter=0;exitX=1;exitY=0.5;exitDx=0;exitDy=0;" parent="1F-A1b4ldRTi4-3DTauU-50" source="1F-A1b4ldRTi4-3DTauU-5" target="1F-A1b4ldRTi4-3DTauU-3" edge="1">
                    <mxGeometry width="160" relative="1" as="geometry">
                        <mxPoint x="320" y="330" as="sourcePoint"/>
                        <mxPoint x="480" y="330" as="targetPoint"/>
                        <Array as="points">
                            <mxPoint x="615" y="369"/>
                        </Array>
                    </mxGeometry>
                </mxCell>
                <mxCell id="1F-A1b4ldRTi4-3DTauU-35" value="Use" style="endArrow=open;endSize=12;dashed=1;html=1;fontFamily=Helvetica;fontSize=20;exitX=0;exitY=0;exitDx=0;exitDy=0;entryX=1.002;entryY=1.031;entryDx=0;entryDy=0;entryPerimeter=0;" parent="1F-A1b4ldRTi4-3DTauU-50" source="1F-A1b4ldRTi4-3DTauU-31" target="1F-A1b4ldRTi4-3DTauU-6" edge="1">
                    <mxGeometry width="160" relative="1" as="geometry">
                        <mxPoint x="809" y="660" as="sourcePoint"/>
                        <mxPoint x="470" y="548" as="targetPoint"/>
                    </mxGeometry>
                </mxCell>
                <mxCell id="_Gq_iFQBbn3idvUQIb2Y-19" value="" style="group" parent="1F-A1b4ldRTi4-3DTauU-1" vertex="1" connectable="0">
                    <mxGeometry x="930" y="97" width="1250" height="520" as="geometry"/>
                </mxCell>
                <mxCell id="_Gq_iFQBbn3idvUQIb2Y-0" value="app" style="rounded=0;whiteSpace=wrap;html=1;" parent="_Gq_iFQBbn3idvUQIb2Y-19" vertex="1">
                    <mxGeometry x="10" width="530" height="60" as="geometry"/>
                </mxCell>
                <mxCell id="_Gq_iFQBbn3idvUQIb2Y-1" value="&lt;span&gt;业务n&lt;/span&gt;" style="rounded=0;whiteSpace=wrap;html=1;" parent="_Gq_iFQBbn3idvUQIb2Y-19" vertex="1">
                    <mxGeometry x="410" y="140" width="120" height="60" as="geometry"/>
                </mxCell>
                <mxCell id="_Gq_iFQBbn3idvUQIb2Y-3" value="&lt;span&gt;Login&lt;br&gt;&lt;/span&gt;" style="rounded=0;whiteSpace=wrap;html=1;" parent="_Gq_iFQBbn3idvUQIb2Y-19" vertex="1">
                    <mxGeometry x="150" y="140" width="120" height="60" as="geometry"/>
                </mxCell>
                <mxCell id="_Gq_iFQBbn3idvUQIb2Y-4" value="News(组件)" style="rounded=0;whiteSpace=wrap;html=1;" parent="_Gq_iFQBbn3idvUQIb2Y-19" vertex="1">
                    <mxGeometry x="10" y="140" width="120" height="60" as="geometry"/>
                </mxCell>
                <mxCell id="_Gq_iFQBbn3idvUQIb2Y-5" value="" style="shape=flexArrow;endArrow=classic;startArrow=classic;html=1;exitX=0.5;exitY=0;exitDx=0;exitDy=0;entryX=0.25;entryY=1;entryDx=0;entryDy=0;" parent="_Gq_iFQBbn3idvUQIb2Y-19" source="_Gq_iFQBbn3idvUQIb2Y-4" target="_Gq_iFQBbn3idvUQIb2Y-0" edge="1">
                    <mxGeometry width="50" height="50" relative="1" as="geometry">
                        <mxPoint x="35" y="120" as="sourcePoint"/>
                        <mxPoint x="70" y="76" as="targetPoint"/>
                    </mxGeometry>
                </mxCell>
                <mxCell id="_Gq_iFQBbn3idvUQIb2Y-6" value="" style="shape=flexArrow;endArrow=classic;startArrow=classic;html=1;entryX=0.5;entryY=1;entryDx=0;entryDy=0;" parent="_Gq_iFQBbn3idvUQIb2Y-19" source="_Gq_iFQBbn3idvUQIb2Y-3" target="_Gq_iFQBbn3idvUQIb2Y-0" edge="1">
                    <mxGeometry width="50" height="50" relative="1" as="geometry">
                        <mxPoint x="80" y="150" as="sourcePoint"/>
                        <mxPoint x="310" y="64" as="targetPoint"/>
                    </mxGeometry>
                </mxCell>
                <mxCell id="_Gq_iFQBbn3idvUQIb2Y-8" value="" style="shape=flexArrow;endArrow=classic;startArrow=classic;html=1;entryX=0.952;entryY=0.983;entryDx=0;entryDy=0;entryPerimeter=0;" parent="_Gq_iFQBbn3idvUQIb2Y-19" target="_Gq_iFQBbn3idvUQIb2Y-0" edge="1">
                    <mxGeometry width="50" height="50" relative="1" as="geometry">
                        <mxPoint x="467.5204688476765" y="135.98000000000002" as="sourcePoint"/>
                        <mxPoint x="472.47" y="69.99999999999997" as="targetPoint"/>
                    </mxGeometry>
                </mxCell>
                <mxCell id="_Gq_iFQBbn3idvUQIb2Y-9" value="common" style="rounded=0;whiteSpace=wrap;html=1;" parent="_Gq_iFQBbn3idvUQIb2Y-19" vertex="1">
                    <mxGeometry x="10" y="290" width="550" height="60" as="geometry"/>
                </mxCell>
                <mxCell id="_Gq_iFQBbn3idvUQIb2Y-10" value="network" style="rounded=0;whiteSpace=wrap;html=1;" parent="_Gq_iFQBbn3idvUQIb2Y-19" vertex="1">
                    <mxGeometry x="10" y="370" width="510" height="60" as="geometry"/>
                </mxCell>
                <mxCell id="_Gq_iFQBbn3idvUQIb2Y-11" value="base" style="rounded=0;whiteSpace=wrap;html=1;" parent="_Gq_iFQBbn3idvUQIb2Y-19" vertex="1">
                    <mxGeometry y="460" width="510" height="60" as="geometry"/>
                </mxCell>
                <mxCell id="_Gq_iFQBbn3idvUQIb2Y-12" value="" style="shape=flexArrow;endArrow=classic;html=1;exitX=0.643;exitY=1.067;exitDx=0;exitDy=0;exitPerimeter=0;entryX=0.277;entryY=0.017;entryDx=0;entryDy=0;entryPerimeter=0;" parent="_Gq_iFQBbn3idvUQIb2Y-19" source="_Gq_iFQBbn3idvUQIb2Y-4" target="_Gq_iFQBbn3idvUQIb2Y-9" edge="1">
                    <mxGeometry width="50" height="50" relative="1" as="geometry">
                        <mxPoint x="270" y="310" as="sourcePoint"/>
                        <mxPoint x="320" y="260" as="targetPoint"/>
                    </mxGeometry>
                </mxCell>
                <mxCell id="_Gq_iFQBbn3idvUQIb2Y-13" value="" style="shape=flexArrow;endArrow=classic;html=1;exitX=0.5;exitY=1;exitDx=0;exitDy=0;entryX=0.5;entryY=0;entryDx=0;entryDy=0;" parent="_Gq_iFQBbn3idvUQIb2Y-19" source="_Gq_iFQBbn3idvUQIb2Y-3" target="_Gq_iFQBbn3idvUQIb2Y-9" edge="1">
                    <mxGeometry width="50" height="50" relative="1" as="geometry">
                        <mxPoint x="190" y="200" as="sourcePoint"/>
                        <mxPoint x="254.11000000000013" y="277" as="targetPoint"/>
                    </mxGeometry>
                </mxCell>
                <mxCell id="_Gq_iFQBbn3idvUQIb2Y-14" value="" style="shape=flexArrow;endArrow=classic;html=1;exitX=0.402;exitY=0.983;exitDx=0;exitDy=0;entryX=0.902;entryY=0;entryDx=0;entryDy=0;exitPerimeter=0;entryPerimeter=0;" parent="_Gq_iFQBbn3idvUQIb2Y-19" source="_Gq_iFQBbn3idvUQIb2Y-1" target="_Gq_iFQBbn3idvUQIb2Y-9" edge="1">
                    <mxGeometry width="50" height="50" relative="1" as="geometry">
                        <mxPoint x="442.5" y="220" as="sourcePoint"/>
                        <mxPoint x="497.5" y="300" as="targetPoint"/>
                    </mxGeometry>
                </mxCell>
                <mxCell id="_Gq_iFQBbn3idvUQIb2Y-16" value="CC" style="rounded=0;whiteSpace=wrap;html=1;fillColor=#008a00;strokeColor=#005700;fontColor=#ffffff;" parent="_Gq_iFQBbn3idvUQIb2Y-19" vertex="1">
                    <mxGeometry x="30" y="295" width="120" height="50" as="geometry"/>
                </mxCell>
                <mxCell id="_Gq_iFQBbn3idvUQIb2Y-17" value="WebView" style="rounded=0;whiteSpace=wrap;html=1;" parent="_Gq_iFQBbn3idvUQIb2Y-19" vertex="1">
                    <mxGeometry x="740" y="290" width="320" height="60" as="geometry"/>
                </mxCell>
                <mxCell id="_Gq_iFQBbn3idvUQIb2Y-18" style="edgeStyle=orthogonalEdgeStyle;rounded=0;orthogonalLoop=1;jettySize=auto;html=1;fontFamily=Helvetica;fontSize=20;entryX=0;entryY=0.5;entryDx=0;entryDy=0;" parent="_Gq_iFQBbn3idvUQIb2Y-19" source="_Gq_iFQBbn3idvUQIb2Y-9" target="_Gq_iFQBbn3idvUQIb2Y-17" edge="1">
                    <mxGeometry relative="1" as="geometry">
                        <mxPoint x="670" y="320" as="targetPoint"/>
                    </mxGeometry>
                </mxCell>
                <mxCell id="lhyXspPBKxwu7mxJ_aTc-27" style="edgeStyle=orthogonalEdgeStyle;rounded=0;orthogonalLoop=1;jettySize=auto;html=1;fontSize=29;" parent="1F-A1b4ldRTi4-3DTauU-1" source="lhyXspPBKxwu7mxJ_aTc-11" target="lhyXspPBKxwu7mxJ_aTc-6" edge="1">
                    <mxGeometry relative="1" as="geometry">
                        <mxPoint x="1280" y="1658" as="sourcePoint"/>
                        <Array as="points"/>
                    </mxGeometry>
                </mxCell>
                <mxCell id="lhyXspPBKxwu7mxJ_aTc-26" value="" style="endArrow=classic;html=1;fontSize=29;exitX=1.004;exitY=0.1;exitDx=0;exitDy=0;exitPerimeter=0;entryX=0.004;entryY=0.103;entryDx=0;entryDy=0;entryPerimeter=0;" parent="1F-A1b4ldRTi4-3DTauU-1" source="lhyXspPBKxwu7mxJ_aTc-0" target="lhyXspPBKxwu7mxJ_aTc-6" edge="1">
                    <mxGeometry width="50" height="50" relative="1" as="geometry">
                        <mxPoint x="780" y="1410" as="sourcePoint"/>
                        <mxPoint x="1120" y="1390" as="targetPoint"/>
                    </mxGeometry>
                </mxCell>
                <mxCell id="lhyXspPBKxwu7mxJ_aTc-29" value="" style="group" parent="1F-A1b4ldRTi4-3DTauU-1" vertex="1" connectable="0">
                    <mxGeometry x="1280" y="1260" width="310" height="740" as="geometry"/>
                </mxCell>
                <mxCell id="lhyXspPBKxwu7mxJ_aTc-11" value="" style="rounded=0;whiteSpace=wrap;html=1;" parent="lhyXspPBKxwu7mxJ_aTc-29" vertex="1">
                    <mxGeometry y="50" width="310" height="690" as="geometry"/>
                </mxCell>
                <mxCell id="lhyXspPBKxwu7mxJ_aTc-12" value="&lt;font style=&quot;font-size: 29px;&quot;&gt;网络数据&lt;/font&gt;" style="text;html=1;align=center;verticalAlign=middle;resizable=0;points=[];autosize=1;fontSize=29;" parent="lhyXspPBKxwu7mxJ_aTc-29" vertex="1">
                    <mxGeometry x="76" width="130" height="40" as="geometry"/>
                </mxCell>
                <mxCell id="lhyXspPBKxwu7mxJ_aTc-13" value="ContentList" style="rounded=0;whiteSpace=wrap;html=1;fontSize=29;" parent="lhyXspPBKxwu7mxJ_aTc-29" vertex="1">
                    <mxGeometry x="86" y="120" width="164" height="60" as="geometry"/>
                </mxCell>
                <mxCell id="lhyXspPBKxwu7mxJ_aTc-14" value="ContentList" style="rounded=0;whiteSpace=wrap;html=1;fontSize=29;" parent="lhyXspPBKxwu7mxJ_aTc-29" vertex="1">
                    <mxGeometry x="90" y="500" width="164" height="60" as="geometry"/>
                </mxCell>
                <mxCell id="lhyXspPBKxwu7mxJ_aTc-15" value="ContentList" style="rounded=0;whiteSpace=wrap;html=1;fontSize=29;" parent="lhyXspPBKxwu7mxJ_aTc-29" vertex="1">
                    <mxGeometry x="100" y="250" width="164" height="60" as="geometry"/>
                </mxCell>
                <mxCell id="lhyXspPBKxwu7mxJ_aTc-16" value="ContentList" style="rounded=0;whiteSpace=wrap;html=1;fontSize=29;" parent="lhyXspPBKxwu7mxJ_aTc-29" vertex="1">
                    <mxGeometry x="100" y="365" width="164" height="60" as="geometry"/>
                </mxCell>
                <mxCell id="lhyXspPBKxwu7mxJ_aTc-30" value="" style="group" parent="1F-A1b4ldRTi4-3DTauU-1" vertex="1" connectable="0">
                    <mxGeometry x="660" y="1260" width="340" height="748" as="geometry"/>
                </mxCell>
                <mxCell id="lhyXspPBKxwu7mxJ_aTc-6" value="" style="rounded=0;whiteSpace=wrap;html=1;fillColor=#60a917;strokeColor=#2D7600;fontColor=#ffffff;" parent="lhyXspPBKxwu7mxJ_aTc-30" vertex="1">
                    <mxGeometry y="48" width="340" height="700" as="geometry"/>
                </mxCell>
                <mxCell id="lhyXspPBKxwu7mxJ_aTc-7" value="" style="rounded=0;whiteSpace=wrap;html=1;" parent="lhyXspPBKxwu7mxJ_aTc-30" vertex="1">
                    <mxGeometry x="110" y="138" width="120" height="60" as="geometry"/>
                </mxCell>
                <mxCell id="lhyXspPBKxwu7mxJ_aTc-8" value="" style="rhombus;whiteSpace=wrap;html=1;" parent="lhyXspPBKxwu7mxJ_aTc-30" vertex="1">
                    <mxGeometry x="130" y="268" width="80" height="80" as="geometry"/>
                </mxCell>
                <mxCell id="lhyXspPBKxwu7mxJ_aTc-9" value="" style="ellipse;whiteSpace=wrap;html=1;" parent="lhyXspPBKxwu7mxJ_aTc-30" vertex="1">
                    <mxGeometry x="130" y="518" width="120" height="80" as="geometry"/>
                </mxCell>
                <mxCell id="lhyXspPBKxwu7mxJ_aTc-10" value="" style="ellipse;whiteSpace=wrap;html=1;aspect=fixed;" parent="lhyXspPBKxwu7mxJ_aTc-30" vertex="1">
                    <mxGeometry x="130" y="388" width="80" height="80" as="geometry"/>
                </mxCell>
                <mxCell id="lhyXspPBKxwu7mxJ_aTc-20" value="ViewModel&lt;br&gt;" style="text;html=1;align=center;verticalAlign=middle;resizable=0;points=[];autosize=1;fontSize=29;" parent="lhyXspPBKxwu7mxJ_aTc-30" vertex="1">
                    <mxGeometry x="86" width="160" height="40" as="geometry"/>
                </mxCell>
                <mxCell id="lhyXspPBKxwu7mxJ_aTc-31" value="" style="group" parent="1F-A1b4ldRTi4-3DTauU-1" vertex="1" connectable="0">
                    <mxGeometry x="75" y="1278" width="310" height="737" as="geometry"/>
                </mxCell>
                <mxCell id="lhyXspPBKxwu7mxJ_aTc-0" value="" style="rounded=0;whiteSpace=wrap;html=1;" parent="lhyXspPBKxwu7mxJ_aTc-31" vertex="1">
                    <mxGeometry y="47" width="310" height="690" as="geometry"/>
                </mxCell>
                <mxCell id="lhyXspPBKxwu7mxJ_aTc-1" value="" style="rounded=0;whiteSpace=wrap;html=1;" parent="lhyXspPBKxwu7mxJ_aTc-31" vertex="1">
                    <mxGeometry x="95" y="122" width="120" height="60" as="geometry"/>
                </mxCell>
                <mxCell id="lhyXspPBKxwu7mxJ_aTc-2" value="&lt;b&gt;&lt;font style=&quot;font-size: 20px&quot;&gt;Activity/Fragment&lt;/font&gt;&lt;/b&gt;" style="text;html=1;align=center;verticalAlign=middle;resizable=0;points=[];autosize=1;" parent="lhyXspPBKxwu7mxJ_aTc-31" vertex="1">
                    <mxGeometry x="46" width="180" height="20" as="geometry"/>
                </mxCell>
                <mxCell id="lhyXspPBKxwu7mxJ_aTc-3" value="" style="rhombus;whiteSpace=wrap;html=1;" parent="lhyXspPBKxwu7mxJ_aTc-31" vertex="1">
                    <mxGeometry x="115" y="252" width="80" height="80" as="geometry"/>
                </mxCell>
                <mxCell id="lhyXspPBKxwu7mxJ_aTc-4" value="" style="ellipse;whiteSpace=wrap;html=1;" parent="lhyXspPBKxwu7mxJ_aTc-31" vertex="1">
                    <mxGeometry x="115" y="502" width="120" height="80" as="geometry"/>
                </mxCell>
                <mxCell id="lhyXspPBKxwu7mxJ_aTc-5" value="" style="ellipse;whiteSpace=wrap;html=1;aspect=fixed;" parent="lhyXspPBKxwu7mxJ_aTc-31" vertex="1">
                    <mxGeometry x="115" y="372" width="80" height="80" as="geometry"/>
                </mxCell>
                <mxCell id="lhyXspPBKxwu7mxJ_aTc-19" value="RecyclerView" style="text;html=1;align=center;verticalAlign=middle;resizable=0;points=[];autosize=1;fontSize=29;" parent="lhyXspPBKxwu7mxJ_aTc-31" vertex="1">
                    <mxGeometry x="60" y="72" width="190" height="40" as="geometry"/>
                </mxCell>
            </root>
        </mxGraphModel>
    </diagram>
    <diagram id="55kAEBJNQXnAMS2VnfzW" name="Http">
        <mxGraphModel dx="1762" dy="1021" grid="1" gridSize="10" guides="1" tooltips="1" connect="1" arrows="1" fold="1" page="1" pageScale="1" pageWidth="827" pageHeight="1169" math="0" shadow="0">
            <root>
                <mxCell id="Niq2sxoMSm24dILbqd6g-0"/>
                <mxCell id="Niq2sxoMSm24dILbqd6g-1" parent="Niq2sxoMSm24dILbqd6g-0"/>
                <mxCell id="Niq2sxoMSm24dILbqd6g-2" value="三次握手，四次挥手" style="text;html=1;align=center;verticalAlign=middle;resizable=0;points=[];autosize=1;" parent="Niq2sxoMSm24dILbqd6g-1" vertex="1">
                    <mxGeometry x="87" y="52" width="120" height="20" as="geometry"/>
                </mxCell>
                <mxCell id="Niq2sxoMSm24dILbqd6g-23" value="" style="group" parent="Niq2sxoMSm24dILbqd6g-1" vertex="1" connectable="0">
                    <mxGeometry x="50" y="130" width="410" height="420" as="geometry"/>
                </mxCell>
                <mxCell id="Niq2sxoMSm24dILbqd6g-6" value="Client" style="shape=umlLifeline;perimeter=lifelinePerimeter;whiteSpace=wrap;html=1;container=1;collapsible=0;recursiveResize=0;outlineConnect=0;" parent="Niq2sxoMSm24dILbqd6g-23" vertex="1">
                    <mxGeometry width="100" height="420" as="geometry"/>
                </mxCell>
                <mxCell id="Niq2sxoMSm24dILbqd6g-9" value="SYNC_SEND" style="text;html=1;align=center;verticalAlign=middle;resizable=0;points=[];autosize=1;" parent="Niq2sxoMSm24dILbqd6g-6" vertex="1">
                    <mxGeometry x="-40" y="60" width="90" height="20" as="geometry"/>
                </mxCell>
                <mxCell id="Niq2sxoMSm24dILbqd6g-7" value="Server" style="shape=umlLifeline;perimeter=lifelinePerimeter;whiteSpace=wrap;html=1;container=1;collapsible=0;recursiveResize=0;outlineConnect=0;" parent="Niq2sxoMSm24dILbqd6g-23" vertex="1">
                    <mxGeometry x="310" y="10" width="100" height="400" as="geometry"/>
                </mxCell>
                <mxCell id="Niq2sxoMSm24dILbqd6g-10" value="" style="endArrow=open;endFill=1;endSize=12;html=1;" parent="Niq2sxoMSm24dILbqd6g-23" source="Niq2sxoMSm24dILbqd6g-6" target="Niq2sxoMSm24dILbqd6g-7" edge="1">
                    <mxGeometry width="160" relative="1" as="geometry">
                        <mxPoint x="280" y="150" as="sourcePoint"/>
                        <mxPoint x="440" y="150" as="targetPoint"/>
                        <Array as="points">
                            <mxPoint x="220" y="110"/>
                        </Array>
                    </mxGeometry>
                </mxCell>
                <mxCell id="Niq2sxoMSm24dILbqd6g-11" value="&lt;font style=&quot;font-size: 18px&quot;&gt;SYN=1,seq=J&lt;/font&gt;" style="text;html=1;align=center;verticalAlign=middle;resizable=0;points=[];autosize=1;" parent="Niq2sxoMSm24dILbqd6g-23" vertex="1">
                    <mxGeometry x="85" y="71" width="130" height="20" as="geometry"/>
                </mxCell>
                <mxCell id="Niq2sxoMSm24dILbqd6g-13" value="&lt;span style=&quot;font-size: 18px&quot;&gt;请求建立链接&lt;/span&gt;" style="text;html=1;align=center;verticalAlign=middle;resizable=0;points=[];autosize=1;" parent="Niq2sxoMSm24dILbqd6g-23" vertex="1">
                    <mxGeometry x="90" y="120" width="120" height="20" as="geometry"/>
                </mxCell>
                <mxCell id="Niq2sxoMSm24dILbqd6g-14" value="" style="endArrow=open;endFill=1;endSize=12;html=1;" parent="Niq2sxoMSm24dILbqd6g-23" source="Niq2sxoMSm24dILbqd6g-7" target="Niq2sxoMSm24dILbqd6g-6" edge="1">
                    <mxGeometry width="160" relative="1" as="geometry">
                        <mxPoint x="280" y="150" as="sourcePoint"/>
                        <mxPoint x="440" y="150" as="targetPoint"/>
                        <Array as="points">
                            <mxPoint x="190" y="220"/>
                        </Array>
                    </mxGeometry>
                </mxCell>
                <mxCell id="Niq2sxoMSm24dILbqd6g-15" value="&lt;font style=&quot;font-size: 18px&quot;&gt;SYN=1,ACK=1,seq=J+1,ack=K&lt;/font&gt;" style="text;html=1;align=center;verticalAlign=middle;resizable=0;points=[];autosize=1;" parent="Niq2sxoMSm24dILbqd6g-23" vertex="1">
                    <mxGeometry x="70" y="180" width="270" height="20" as="geometry"/>
                </mxCell>
                <mxCell id="Niq2sxoMSm24dILbqd6g-16" value="&lt;span style=&quot;font-size: 18px&quot;&gt;针对Client的SYN确认回答&lt;br&gt;并请求建立链接&lt;br&gt;&lt;/span&gt;" style="text;html=1;align=center;verticalAlign=middle;resizable=0;points=[];autosize=1;" parent="Niq2sxoMSm24dILbqd6g-23" vertex="1">
                    <mxGeometry x="85" y="230" width="220" height="40" as="geometry"/>
                </mxCell>
                <mxCell id="Niq2sxoMSm24dILbqd6g-18" value="" style="endArrow=open;endFill=1;endSize=12;html=1;" parent="Niq2sxoMSm24dILbqd6g-23" source="Niq2sxoMSm24dILbqd6g-6" target="Niq2sxoMSm24dILbqd6g-7" edge="1">
                    <mxGeometry width="160" relative="1" as="geometry">
                        <mxPoint x="170" y="390" as="sourcePoint"/>
                        <mxPoint x="360" y="150" as="targetPoint"/>
                        <Array as="points">
                            <mxPoint x="300" y="350"/>
                        </Array>
                    </mxGeometry>
                </mxCell>
                <mxCell id="Niq2sxoMSm24dILbqd6g-19" value="&lt;span style=&quot;font-size: 18px&quot;&gt;ACK=1,ack=K+1&lt;/span&gt;" style="text;html=1;align=center;verticalAlign=middle;resizable=0;points=[];autosize=1;" parent="Niq2sxoMSm24dILbqd6g-23" vertex="1">
                    <mxGeometry x="120" y="310" width="150" height="20" as="geometry"/>
                </mxCell>
                <mxCell id="Niq2sxoMSm24dILbqd6g-33" value="" style="group" parent="Niq2sxoMSm24dILbqd6g-1" vertex="1" connectable="0">
                    <mxGeometry x="450" y="39" width="350" height="515" as="geometry"/>
                </mxCell>
                <mxCell id="Niq2sxoMSm24dILbqd6g-31" value="断开Tcp链接，需要客户端和服务端共发4个确认，也有可能三个&lt;br&gt;&lt;br&gt;TCP是全双工的，所以要求双方都确认关闭" style="text;html=1;align=center;verticalAlign=middle;resizable=0;points=[];autosize=1;" parent="Niq2sxoMSm24dILbqd6g-33" vertex="1">
                    <mxGeometry width="350" height="50" as="geometry"/>
                </mxCell>
                <mxCell id="Niq2sxoMSm24dILbqd6g-32" value="" style="group" parent="Niq2sxoMSm24dILbqd6g-33" vertex="1" connectable="0">
                    <mxGeometry x="70" y="87" width="210" height="428" as="geometry"/>
                </mxCell>
                <mxCell id="Niq2sxoMSm24dILbqd6g-21" value="" style="shape=umlLifeline;participant=umlActor;perimeter=lifelinePerimeter;whiteSpace=wrap;html=1;container=1;collapsible=0;recursiveResize=0;verticalAlign=top;spacingTop=36;labelBackgroundColor=#ffffff;outlineConnect=0;" parent="Niq2sxoMSm24dILbqd6g-32" vertex="1">
                    <mxGeometry width="20" height="428" as="geometry"/>
                </mxCell>
                <mxCell id="Niq2sxoMSm24dILbqd6g-22" value="" style="shape=umlLifeline;participant=umlActor;perimeter=lifelinePerimeter;whiteSpace=wrap;html=1;container=1;collapsible=0;recursiveResize=0;verticalAlign=top;spacingTop=36;labelBackgroundColor=#ffffff;outlineConnect=0;" parent="Niq2sxoMSm24dILbqd6g-32" vertex="1">
                    <mxGeometry x="190" y="4" width="20" height="410" as="geometry"/>
                </mxCell>
                <mxCell id="Niq2sxoMSm24dILbqd6g-24" value="" style="endArrow=open;endFill=1;endSize=12;html=1;" parent="Niq2sxoMSm24dILbqd6g-32" source="Niq2sxoMSm24dILbqd6g-21" target="Niq2sxoMSm24dILbqd6g-22" edge="1">
                    <mxGeometry width="160" relative="1" as="geometry">
                        <mxPoint x="-180" y="154" as="sourcePoint"/>
                        <mxPoint x="-20" y="154" as="targetPoint"/>
                        <Array as="points">
                            <mxPoint x="130" y="134"/>
                        </Array>
                    </mxGeometry>
                </mxCell>
                <mxCell id="Niq2sxoMSm24dILbqd6g-25" value="分手就分手" style="endArrow=open;endFill=1;endSize=12;html=1;" parent="Niq2sxoMSm24dILbqd6g-32" source="Niq2sxoMSm24dILbqd6g-21" target="Niq2sxoMSm24dILbqd6g-22" edge="1">
                    <mxGeometry width="160" relative="1" as="geometry">
                        <mxPoint x="-180" y="154" as="sourcePoint"/>
                        <mxPoint x="-20" y="154" as="targetPoint"/>
                        <Array as="points">
                            <mxPoint x="110" y="364"/>
                        </Array>
                    </mxGeometry>
                </mxCell>
                <mxCell id="Niq2sxoMSm24dILbqd6g-27" value="" style="endArrow=open;endFill=1;endSize=12;html=1;" parent="Niq2sxoMSm24dILbqd6g-32" source="Niq2sxoMSm24dILbqd6g-22" target="Niq2sxoMSm24dILbqd6g-21" edge="1">
                    <mxGeometry width="160" relative="1" as="geometry">
                        <mxPoint x="-180" y="154" as="sourcePoint"/>
                        <mxPoint x="-20" y="154" as="targetPoint"/>
                        <Array as="points">
                            <mxPoint x="120" y="264"/>
                            <mxPoint x="30" y="264"/>
                        </Array>
                    </mxGeometry>
                </mxCell>
                <mxCell id="Niq2sxoMSm24dILbqd6g-30" value="我们分手吧" style="edgeLabel;html=1;align=center;verticalAlign=middle;resizable=0;points=[];" parent="Niq2sxoMSm24dILbqd6g-27" vertex="1" connectable="0">
                    <mxGeometry x="-0.0347" y="3" relative="1" as="geometry">
                        <mxPoint as="offset"/>
                    </mxGeometry>
                </mxCell>
                <mxCell id="Niq2sxoMSm24dILbqd6g-26" value="" style="endArrow=open;endFill=1;endSize=12;html=1;" parent="Niq2sxoMSm24dILbqd6g-32" source="Niq2sxoMSm24dILbqd6g-22" target="Niq2sxoMSm24dILbqd6g-21" edge="1">
                    <mxGeometry width="160" relative="1" as="geometry">
                        <mxPoint x="-140" y="184" as="sourcePoint"/>
                        <mxPoint x="20" y="184" as="targetPoint"/>
                    </mxGeometry>
                </mxCell>
                <mxCell id="Niq2sxoMSm24dILbqd6g-28" value="我不喜欢你了" style="text;html=1;align=center;verticalAlign=middle;resizable=0;points=[];autosize=1;" parent="Niq2sxoMSm24dILbqd6g-32" vertex="1">
                    <mxGeometry x="63" y="111" width="90" height="20" as="geometry"/>
                </mxCell>
                <mxCell id="Niq2sxoMSm24dILbqd6g-29" value="我也不喜欢你了&lt;br&gt;" style="text;html=1;align=center;verticalAlign=middle;resizable=0;points=[];autosize=1;" parent="Niq2sxoMSm24dILbqd6g-32" vertex="1">
                    <mxGeometry x="78" y="199" width="100" height="20" as="geometry"/>
                </mxCell>
                <mxCell id="Niq2sxoMSm24dILbqd6g-56" value="" style="group" parent="Niq2sxoMSm24dILbqd6g-1" vertex="1" connectable="0">
                    <mxGeometry x="60" y="660" width="610" height="509" as="geometry"/>
                </mxCell>
                <mxCell id="Niq2sxoMSm24dILbqd6g-54" value="Http自己的缓存机制" style="text;html=1;align=center;verticalAlign=middle;resizable=0;points=[];autosize=1;" parent="Niq2sxoMSm24dILbqd6g-56" vertex="1">
                    <mxGeometry x="165" width="120" height="20" as="geometry"/>
                </mxCell>
                <mxCell id="Niq2sxoMSm24dILbqd6g-58" value="对比缓存，304，客户端支持配合使用" style="text;html=1;align=center;verticalAlign=middle;resizable=0;points=[];autosize=1;" parent="Niq2sxoMSm24dILbqd6g-56" vertex="1">
                    <mxGeometry x="400" width="210" height="20" as="geometry"/>
                </mxCell>
                <mxCell id="Niq2sxoMSm24dILbqd6g-53" value="" style="group" parent="Niq2sxoMSm24dILbqd6g-56" vertex="1" connectable="0">
                    <mxGeometry y="59" width="460" height="450" as="geometry"/>
                </mxCell>
                <mxCell id="Niq2sxoMSm24dILbqd6g-35" value="客户端" style="shape=umlLifeline;perimeter=lifelinePerimeter;whiteSpace=wrap;html=1;container=1;collapsible=0;recursiveResize=0;outlineConnect=0;" parent="Niq2sxoMSm24dILbqd6g-53" vertex="1">
                    <mxGeometry width="100" height="420" as="geometry"/>
                </mxCell>
                <mxCell id="Niq2sxoMSm24dILbqd6g-44" value="" style="edgeStyle=orthogonalEdgeStyle;rounded=0;orthogonalLoop=1;jettySize=auto;html=1;dashed=1;" parent="Niq2sxoMSm24dILbqd6g-53" source="Niq2sxoMSm24dILbqd6g-37" target="Niq2sxoMSm24dILbqd6g-35" edge="1">
                    <mxGeometry relative="1" as="geometry">
                        <Array as="points">
                            <mxPoint x="170" y="110"/>
                            <mxPoint x="170" y="110"/>
                        </Array>
                    </mxGeometry>
                </mxCell>
                <mxCell id="Niq2sxoMSm24dILbqd6g-37" value="缓存数据数据库" style="shape=umlLifeline;perimeter=lifelinePerimeter;whiteSpace=wrap;html=1;container=1;collapsible=0;recursiveResize=0;outlineConnect=0;" parent="Niq2sxoMSm24dILbqd6g-53" vertex="1">
                    <mxGeometry x="258" y="-10" width="100" height="450" as="geometry"/>
                </mxCell>
                <mxCell id="Niq2sxoMSm24dILbqd6g-38" value="" style="edgeStyle=orthogonalEdgeStyle;rounded=0;orthogonalLoop=1;jettySize=auto;html=1;" parent="Niq2sxoMSm24dILbqd6g-53" source="Niq2sxoMSm24dILbqd6g-35" target="Niq2sxoMSm24dILbqd6g-37" edge="1">
                    <mxGeometry relative="1" as="geometry">
                        <Array as="points">
                            <mxPoint x="170" y="90"/>
                            <mxPoint x="170" y="90"/>
                        </Array>
                    </mxGeometry>
                </mxCell>
                <mxCell id="Niq2sxoMSm24dILbqd6g-40" value="请求数据" style="edgeLabel;html=1;align=center;verticalAlign=middle;resizable=0;points=[];" parent="Niq2sxoMSm24dILbqd6g-38" vertex="1" connectable="0">
                    <mxGeometry x="0.3389" y="14" relative="1" as="geometry">
                        <mxPoint x="-15" y="13" as="offset"/>
                    </mxGeometry>
                </mxCell>
                <mxCell id="Niq2sxoMSm24dILbqd6g-57" value="获取缓存标志" style="edgeLabel;html=1;align=center;verticalAlign=middle;resizable=0;points=[];" parent="Niq2sxoMSm24dILbqd6g-38" vertex="1" connectable="0">
                    <mxGeometry x="0.4984" relative="1" as="geometry">
                        <mxPoint x="-42.5" y="-20" as="offset"/>
                    </mxGeometry>
                </mxCell>
                <mxCell id="Niq2sxoMSm24dILbqd6g-51" style="edgeStyle=orthogonalEdgeStyle;rounded=0;orthogonalLoop=1;jettySize=auto;html=1;" parent="Niq2sxoMSm24dILbqd6g-53" source="Niq2sxoMSm24dILbqd6g-35" target="Niq2sxoMSm24dILbqd6g-37" edge="1">
                    <mxGeometry relative="1" as="geometry">
                        <Array as="points">
                            <mxPoint x="150" y="350"/>
                            <mxPoint x="150" y="350"/>
                        </Array>
                    </mxGeometry>
                </mxCell>
                <mxCell id="Niq2sxoMSm24dILbqd6g-52" value="缓存机制和缓存存入缓存系统" style="edgeLabel;html=1;align=center;verticalAlign=middle;resizable=0;points=[];" parent="Niq2sxoMSm24dILbqd6g-51" vertex="1" connectable="0">
                    <mxGeometry x="0.1167" y="23" relative="1" as="geometry">
                        <mxPoint x="-24" y="21" as="offset"/>
                    </mxGeometry>
                </mxCell>
                <mxCell id="Niq2sxoMSm24dILbqd6g-46" value="no" style="text;html=1;align=center;verticalAlign=middle;resizable=0;points=[];autosize=1;" parent="Niq2sxoMSm24dILbqd6g-53" vertex="1">
                    <mxGeometry x="240" y="95" width="30" height="20" as="geometry"/>
                </mxCell>
                <mxCell id="Niq2sxoMSm24dILbqd6g-41" value="服务端" style="shape=umlLifeline;perimeter=lifelinePerimeter;whiteSpace=wrap;html=1;container=1;collapsible=0;recursiveResize=0;outlineConnect=0;" parent="Niq2sxoMSm24dILbqd6g-56" vertex="1">
                    <mxGeometry x="510" y="59" width="100" height="420" as="geometry"/>
                </mxCell>
                <mxCell id="Niq2sxoMSm24dILbqd6g-45" style="edgeStyle=orthogonalEdgeStyle;rounded=0;orthogonalLoop=1;jettySize=auto;html=1;dashed=1;" parent="Niq2sxoMSm24dILbqd6g-56" source="Niq2sxoMSm24dILbqd6g-41" target="Niq2sxoMSm24dILbqd6g-35" edge="1">
                    <mxGeometry relative="1" as="geometry">
                        <Array as="points">
                            <mxPoint x="300" y="249"/>
                            <mxPoint x="300" y="249"/>
                        </Array>
                    </mxGeometry>
                </mxCell>
                <mxCell id="Niq2sxoMSm24dILbqd6g-48" value="返回数据&amp;amp; 缓存机制" style="edgeLabel;html=1;align=center;verticalAlign=middle;resizable=0;points=[];" parent="Niq2sxoMSm24dILbqd6g-45" vertex="1" connectable="0">
                    <mxGeometry x="-0.235" y="4" relative="1" as="geometry">
                        <mxPoint as="offset"/>
                    </mxGeometry>
                </mxCell>
                <mxCell id="Niq2sxoMSm24dILbqd6g-43" value="" style="edgeStyle=orthogonalEdgeStyle;rounded=0;orthogonalLoop=1;jettySize=auto;html=1;" parent="Niq2sxoMSm24dILbqd6g-56" source="Niq2sxoMSm24dILbqd6g-35" target="Niq2sxoMSm24dILbqd6g-41" edge="1">
                    <mxGeometry relative="1" as="geometry">
                        <Array as="points">
                            <mxPoint x="340" y="309"/>
                            <mxPoint x="340" y="309"/>
                        </Array>
                    </mxGeometry>
                </mxCell>
                <mxCell id="Niq2sxoMSm24dILbqd6g-47" value="请求数据" style="edgeLabel;html=1;align=center;verticalAlign=middle;resizable=0;points=[];" parent="Niq2sxoMSm24dILbqd6g-43" vertex="1" connectable="0">
                    <mxGeometry x="0.1128" y="3" relative="1" as="geometry">
                        <mxPoint x="78" y="-10" as="offset"/>
                    </mxGeometry>
                </mxCell>
                <mxCell id="QhoYe_2IhRAoZ51qDsFs-2" value="" style="edgeStyle=orthogonalEdgeStyle;rounded=0;orthogonalLoop=1;jettySize=auto;html=1;" parent="Niq2sxoMSm24dILbqd6g-1" source="QhoYe_2IhRAoZ51qDsFs-0" target="QhoYe_2IhRAoZ51qDsFs-1" edge="1">
                    <mxGeometry relative="1" as="geometry">
                        <Array as="points">
                            <mxPoint x="1150" y="230"/>
                            <mxPoint x="1150" y="230"/>
                        </Array>
                    </mxGeometry>
                </mxCell>
                <mxCell id="QhoYe_2IhRAoZ51qDsFs-4" value="随机数" style="edgeLabel;html=1;align=center;verticalAlign=middle;resizable=0;points=[];fontSize=18;" parent="QhoYe_2IhRAoZ51qDsFs-2" vertex="1" connectable="0">
                    <mxGeometry x="0.1468" y="1" relative="1" as="geometry">
                        <mxPoint x="1" as="offset"/>
                    </mxGeometry>
                </mxCell>
                <mxCell id="QhoYe_2IhRAoZ51qDsFs-10" style="edgeStyle=orthogonalEdgeStyle;rounded=0;orthogonalLoop=1;jettySize=auto;html=1;fontSize=18;" parent="Niq2sxoMSm24dILbqd6g-1" source="QhoYe_2IhRAoZ51qDsFs-0" target="QhoYe_2IhRAoZ51qDsFs-1" edge="1">
                    <mxGeometry relative="1" as="geometry">
                        <Array as="points">
                            <mxPoint x="1350" y="470"/>
                            <mxPoint x="1350" y="470"/>
                        </Array>
                    </mxGeometry>
                </mxCell>
                <mxCell id="QhoYe_2IhRAoZ51qDsFs-13" value="非对称加密的公钥（随机数对称加密的秘钥）" style="edgeLabel;html=1;align=center;verticalAlign=middle;resizable=0;points=[];fontSize=18;" parent="QhoYe_2IhRAoZ51qDsFs-10" vertex="1" connectable="0">
                    <mxGeometry x="0.0362" relative="1" as="geometry">
                        <mxPoint x="2.5" y="-10" as="offset"/>
                    </mxGeometry>
                </mxCell>
                <mxCell id="QhoYe_2IhRAoZ51qDsFs-0" value="A" style="shape=umlLifeline;perimeter=lifelinePerimeter;whiteSpace=wrap;html=1;container=1;collapsible=0;recursiveResize=0;outlineConnect=0;" parent="Niq2sxoMSm24dILbqd6g-1" vertex="1">
                    <mxGeometry x="910" y="120" width="100" height="500" as="geometry"/>
                </mxCell>
                <mxCell id="QhoYe_2IhRAoZ51qDsFs-11" style="edgeStyle=orthogonalEdgeStyle;rounded=0;orthogonalLoop=1;jettySize=auto;html=1;fontSize=18;dashed=1;" parent="Niq2sxoMSm24dILbqd6g-1" source="QhoYe_2IhRAoZ51qDsFs-1" target="QhoYe_2IhRAoZ51qDsFs-0" edge="1">
                    <mxGeometry relative="1" as="geometry">
                        <Array as="points">
                            <mxPoint x="1300" y="330"/>
                            <mxPoint x="1300" y="330"/>
                        </Array>
                    </mxGeometry>
                </mxCell>
                <mxCell id="QhoYe_2IhRAoZ51qDsFs-12" value="随机数" style="edgeLabel;html=1;align=center;verticalAlign=middle;resizable=0;points=[];fontSize=18;" parent="QhoYe_2IhRAoZ51qDsFs-11" vertex="1" connectable="0">
                    <mxGeometry x="0.2745" y="87" relative="1" as="geometry">
                        <mxPoint x="88" y="-85" as="offset"/>
                    </mxGeometry>
                </mxCell>
                <mxCell id="QhoYe_2IhRAoZ51qDsFs-1" value="B" style="shape=umlLifeline;perimeter=lifelinePerimeter;whiteSpace=wrap;html=1;container=1;collapsible=0;recursiveResize=0;outlineConnect=0;" parent="Niq2sxoMSm24dILbqd6g-1" vertex="1">
                    <mxGeometry x="1380" y="120" width="100" height="500" as="geometry"/>
                </mxCell>
                <mxCell id="QhoYe_2IhRAoZ51qDsFs-5" value="https认证" style="text;html=1;align=center;verticalAlign=middle;resizable=0;points=[];autosize=1;fontSize=18;" parent="Niq2sxoMSm24dILbqd6g-1" vertex="1">
                    <mxGeometry x="1116" y="53" width="90" height="30" as="geometry"/>
                </mxCell>
                <mxCell id="QhoYe_2IhRAoZ51qDsFs-42" value="" style="group" parent="Niq2sxoMSm24dILbqd6g-1" vertex="1" connectable="0">
                    <mxGeometry x="910" y="660" width="550" height="456" as="geometry"/>
                </mxCell>
                <mxCell id="QhoYe_2IhRAoZ51qDsFs-15" value="" style="rounded=0;whiteSpace=wrap;html=1;fontSize=18;fillColor=#a0522d;strokeColor=#6D1F00;fontColor=#ffffff;" parent="QhoYe_2IhRAoZ51qDsFs-42" vertex="1">
                    <mxGeometry y="26" width="190" height="430" as="geometry"/>
                </mxCell>
                <mxCell id="QhoYe_2IhRAoZ51qDsFs-16" value="" style="rounded=0;whiteSpace=wrap;html=1;fontSize=18;fillColor=#6d8764;strokeColor=#3A5431;fontColor=#ffffff;" parent="QhoYe_2IhRAoZ51qDsFs-42" vertex="1">
                    <mxGeometry x="361" y="26" width="189" height="430" as="geometry"/>
                </mxCell>
                <mxCell id="QhoYe_2IhRAoZ51qDsFs-17" value="创建ServerSocke't" style="rounded=0;whiteSpace=wrap;html=1;fontSize=18;fillColor=#d80073;strokeColor=#A50040;fontColor=#ffffff;" parent="QhoYe_2IhRAoZ51qDsFs-42" vertex="1">
                    <mxGeometry x="40" y="46" width="120" height="60" as="geometry"/>
                </mxCell>
                <mxCell id="QhoYe_2IhRAoZ51qDsFs-18" value="接受请求后创建Socket" style="rounded=0;whiteSpace=wrap;html=1;fontSize=18;fillColor=#647687;strokeColor=#314354;fontColor=#ffffff;" parent="QhoYe_2IhRAoZ51qDsFs-42" vertex="1">
                    <mxGeometry x="40" y="196" width="120" height="60" as="geometry"/>
                </mxCell>
                <mxCell id="QhoYe_2IhRAoZ51qDsFs-41" style="edgeStyle=orthogonalEdgeStyle;rounded=0;orthogonalLoop=1;jettySize=auto;html=1;entryX=0;entryY=0.75;entryDx=0;entryDy=0;fontSize=18;" parent="QhoYe_2IhRAoZ51qDsFs-42" source="QhoYe_2IhRAoZ51qDsFs-17" target="QhoYe_2IhRAoZ51qDsFs-18" edge="1">
                    <mxGeometry relative="1" as="geometry">
                        <Array as="points">
                            <mxPoint x="20" y="76"/>
                            <mxPoint x="20" y="241"/>
                        </Array>
                    </mxGeometry>
                </mxCell>
                <mxCell id="QhoYe_2IhRAoZ51qDsFs-19" value="accept()等待请求" style="rounded=0;whiteSpace=wrap;html=1;fontSize=18;fillColor=#fa6800;strokeColor=#C73500;fontColor=#ffffff;" parent="QhoYe_2IhRAoZ51qDsFs-42" vertex="1">
                    <mxGeometry x="40" y="116" width="120" height="60" as="geometry"/>
                </mxCell>
                <mxCell id="QhoYe_2IhRAoZ51qDsFs-37" style="edgeStyle=orthogonalEdgeStyle;rounded=0;orthogonalLoop=1;jettySize=auto;html=1;exitX=0;exitY=0.5;exitDx=0;exitDy=0;entryX=0;entryY=0.5;entryDx=0;entryDy=0;fontSize=18;" parent="QhoYe_2IhRAoZ51qDsFs-42" source="QhoYe_2IhRAoZ51qDsFs-17" target="QhoYe_2IhRAoZ51qDsFs-19" edge="1">
                    <mxGeometry relative="1" as="geometry"/>
                </mxCell>
                <mxCell id="QhoYe_2IhRAoZ51qDsFs-20" value="&lt;span&gt;关闭socket与相关资源&lt;/span&gt;" style="rounded=0;whiteSpace=wrap;html=1;fontSize=18;fillColor=#d80073;strokeColor=#A50040;fontColor=#ffffff;" parent="QhoYe_2IhRAoZ51qDsFs-42" vertex="1">
                    <mxGeometry x="385" y="376" width="120" height="60" as="geometry"/>
                </mxCell>
                <mxCell id="QhoYe_2IhRAoZ51qDsFs-33" style="edgeStyle=orthogonalEdgeStyle;rounded=0;orthogonalLoop=1;jettySize=auto;html=1;entryX=1.008;entryY=0.133;entryDx=0;entryDy=0;entryPerimeter=0;fontSize=18;" parent="QhoYe_2IhRAoZ51qDsFs-42" source="QhoYe_2IhRAoZ51qDsFs-21" target="QhoYe_2IhRAoZ51qDsFs-19" edge="1">
                    <mxGeometry relative="1" as="geometry">
                        <Array as="points">
                            <mxPoint x="340" y="124"/>
                            <mxPoint x="340" y="124"/>
                        </Array>
                    </mxGeometry>
                </mxCell>
                <mxCell id="QhoYe_2IhRAoZ51qDsFs-21" value="创建Socket链接向服务器发送请求" style="rounded=0;whiteSpace=wrap;html=1;fontSize=18;fillColor=#008a00;strokeColor=#005700;fontColor=#ffffff;" parent="QhoYe_2IhRAoZ51qDsFs-42" vertex="1">
                    <mxGeometry x="395.5" y="86" width="120" height="60" as="geometry"/>
                </mxCell>
                <mxCell id="QhoYe_2IhRAoZ51qDsFs-22" value="关闭socket与相关资源" style="rounded=0;whiteSpace=wrap;html=1;fontSize=18;fillColor=#d80073;strokeColor=#A50040;fontColor=#ffffff;" parent="QhoYe_2IhRAoZ51qDsFs-42" vertex="1">
                    <mxGeometry x="40" y="376" width="120" height="60" as="geometry"/>
                </mxCell>
                <mxCell id="QhoYe_2IhRAoZ51qDsFs-23" value="ServerSocket" style="text;html=1;align=center;verticalAlign=middle;resizable=0;points=[];autosize=1;fontSize=18;" parent="QhoYe_2IhRAoZ51qDsFs-42" vertex="1">
                    <mxGeometry x="81" width="120" height="30" as="geometry"/>
                </mxCell>
                <mxCell id="QhoYe_2IhRAoZ51qDsFs-24" value="Client Socket" style="text;html=1;align=center;verticalAlign=middle;resizable=0;points=[];autosize=1;fontSize=18;" parent="QhoYe_2IhRAoZ51qDsFs-42" vertex="1">
                    <mxGeometry x="385" y="2" width="120" height="30" as="geometry"/>
                </mxCell>
                <mxCell id="QhoYe_2IhRAoZ51qDsFs-25" value="Outputstream" style="rounded=0;whiteSpace=wrap;html=1;fontSize=18;fillColor=#008a00;strokeColor=#005700;fontColor=#ffffff;" parent="QhoYe_2IhRAoZ51qDsFs-42" vertex="1">
                    <mxGeometry x="40" y="306" width="120" height="30" as="geometry"/>
                </mxCell>
                <mxCell id="QhoYe_2IhRAoZ51qDsFs-26" value="InputStream" style="rounded=0;whiteSpace=wrap;html=1;fontSize=18;fillColor=#0050ef;strokeColor=#001DBC;fontColor=#ffffff;" parent="QhoYe_2IhRAoZ51qDsFs-42" vertex="1">
                    <mxGeometry x="40" y="266" width="120" height="40" as="geometry"/>
                </mxCell>
                <mxCell id="QhoYe_2IhRAoZ51qDsFs-27" value="Outputstream" style="rounded=0;whiteSpace=wrap;html=1;fontSize=18;fillColor=#008a00;strokeColor=#005700;fontColor=#ffffff;" parent="QhoYe_2IhRAoZ51qDsFs-42" vertex="1">
                    <mxGeometry x="395.5" y="306" width="120" height="30" as="geometry"/>
                </mxCell>
                <mxCell id="QhoYe_2IhRAoZ51qDsFs-28" value="InputStream" style="rounded=0;whiteSpace=wrap;html=1;fontSize=18;fillColor=#0050ef;strokeColor=#001DBC;fontColor=#ffffff;" parent="QhoYe_2IhRAoZ51qDsFs-42" vertex="1">
                    <mxGeometry x="395.5" y="266" width="120" height="40" as="geometry"/>
                </mxCell>
                <mxCell id="QhoYe_2IhRAoZ51qDsFs-34" value="" style="endArrow=none;html=1;fontSize=18;entryX=0;entryY=0.5;entryDx=0;entryDy=0;" parent="QhoYe_2IhRAoZ51qDsFs-42" target="QhoYe_2IhRAoZ51qDsFs-28" edge="1">
                    <mxGeometry width="50" height="50" relative="1" as="geometry">
                        <mxPoint x="160" y="288" as="sourcePoint"/>
                        <mxPoint x="360" y="256" as="targetPoint"/>
                    </mxGeometry>
                </mxCell>
                <mxCell id="QhoYe_2IhRAoZ51qDsFs-35" value="" style="endArrow=none;html=1;fontSize=18;exitX=1;exitY=0.5;exitDx=0;exitDy=0;entryX=0;entryY=0.5;entryDx=0;entryDy=0;" parent="QhoYe_2IhRAoZ51qDsFs-42" source="QhoYe_2IhRAoZ51qDsFs-25" target="QhoYe_2IhRAoZ51qDsFs-27" edge="1">
                    <mxGeometry width="50" height="50" relative="1" as="geometry">
                        <mxPoint x="310" y="306" as="sourcePoint"/>
                        <mxPoint x="360" y="256" as="targetPoint"/>
                    </mxGeometry>
                </mxCell>
            </root>
        </mxGraphModel>
    </diagram>
    <diagram id="HINd1lB67ibSl2mWbwq7" name="Retrofit">
        <mxGraphModel dx="1762" dy="1021" grid="1" gridSize="10" guides="1" tooltips="1" connect="1" arrows="1" fold="1" page="1" pageScale="1" pageWidth="827" pageHeight="1169" math="0" shadow="0">
            <root>
                <mxCell id="wCDfZKwV8gHTYz6PKGLF-0"/>
                <mxCell id="wCDfZKwV8gHTYz6PKGLF-1" parent="wCDfZKwV8gHTYz6PKGLF-0"/>
                <mxCell id="vNsNvMxjZOVm_oqjdoPh-6" value="" style="group" parent="wCDfZKwV8gHTYz6PKGLF-1" vertex="1" connectable="0">
                    <mxGeometry x="90" y="1240" width="2360" height="1220" as="geometry"/>
                </mxCell>
                <mxCell id="4ZbNPeoZiNgP81Eea5ZC-24" value="" style="group" parent="vNsNvMxjZOVm_oqjdoPh-6" vertex="1" connectable="0">
                    <mxGeometry width="490" height="1220" as="geometry"/>
                </mxCell>
                <mxCell id="4ZbNPeoZiNgP81Eea5ZC-9" value="" style="group" parent="4ZbNPeoZiNgP81Eea5ZC-24" vertex="1" connectable="0">
                    <mxGeometry width="490" height="1220" as="geometry"/>
                </mxCell>
                <mxCell id="4ZbNPeoZiNgP81Eea5ZC-0" value="&lt;b&gt;&lt;font style=&quot;font-size: 17px&quot;&gt;Retrofit&lt;/font&gt;&lt;/b&gt;" style="shape=umlLifeline;perimeter=lifelinePerimeter;whiteSpace=wrap;html=1;container=1;collapsible=0;recursiveResize=0;outlineConnect=0;" parent="4ZbNPeoZiNgP81Eea5ZC-9" vertex="1">
                    <mxGeometry width="100" height="1080" as="geometry"/>
                </mxCell>
                <mxCell id="4ZbNPeoZiNgP81Eea5ZC-1" value="" style="html=1;points=[];perimeter=orthogonalPerimeter;" parent="4ZbNPeoZiNgP81Eea5ZC-0" vertex="1">
                    <mxGeometry x="45" y="202.29885057471265" width="10" height="72.2495894909688" as="geometry"/>
                </mxCell>
                <mxCell id="4ZbNPeoZiNgP81Eea5ZC-2" value="&lt;b&gt;&lt;font style=&quot;font-size: 17px&quot;&gt;Builder(Platfor platform)&lt;/font&gt;&lt;/b&gt;" style="edgeStyle=orthogonalEdgeStyle;html=1;align=left;spacingLeft=2;endArrow=block;rounded=0;entryX=1;entryY=0;" parent="4ZbNPeoZiNgP81Eea5ZC-0" target="4ZbNPeoZiNgP81Eea5ZC-1" edge="1">
                    <mxGeometry relative="1" as="geometry">
                        <mxPoint x="51" y="115.59934318555008" as="sourcePoint"/>
                        <Array as="points">
                            <mxPoint x="76" y="115.59934318555008"/>
                        </Array>
                    </mxGeometry>
                </mxCell>
                <mxCell id="4ZbNPeoZiNgP81Eea5ZC-3" value="" style="html=1;points=[];perimeter=orthogonalPerimeter;" parent="4ZbNPeoZiNgP81Eea5ZC-0" vertex="1">
                    <mxGeometry x="45" y="346.79802955665025" width="10" height="57.79967159277504" as="geometry"/>
                </mxCell>
                <mxCell id="4ZbNPeoZiNgP81Eea5ZC-4" value="&lt;b&gt;&lt;font style=&quot;font-size: 17px&quot;&gt;baseUrl(String baseUrl)&lt;/font&gt;&lt;/b&gt;" style="edgeStyle=orthogonalEdgeStyle;html=1;align=left;spacingLeft=2;endArrow=block;rounded=0;entryX=1;entryY=0;" parent="4ZbNPeoZiNgP81Eea5ZC-0" target="4ZbNPeoZiNgP81Eea5ZC-3" edge="1">
                    <mxGeometry relative="1" as="geometry">
                        <mxPoint x="50" y="317.89819376026276" as="sourcePoint"/>
                        <Array as="points">
                            <mxPoint x="75" y="317.89819376026276"/>
                        </Array>
                    </mxGeometry>
                </mxCell>
                <mxCell id="4ZbNPeoZiNgP81Eea5ZC-12" value="" style="html=1;points=[];perimeter=orthogonalPerimeter;" parent="4ZbNPeoZiNgP81Eea5ZC-0" vertex="1">
                    <mxGeometry x="45" y="505.7471264367816" width="10" height="130.04926108374386" as="geometry"/>
                </mxCell>
                <mxCell id="4ZbNPeoZiNgP81Eea5ZC-13" value="&lt;b&gt;&lt;font style=&quot;font-size: 17px&quot;&gt;addConverterFactor&lt;/font&gt;&lt;/b&gt;y(&lt;span style=&quot;background-color: rgb(43 , 43 , 43) ; color: rgb(169 , 183 , 198) ; font-family: &amp;#34;menlo&amp;#34; , monospace ; font-size: 12pt&quot;&gt;Converter.Factory&lt;/span&gt;)" style="edgeStyle=orthogonalEdgeStyle;html=1;align=left;spacingLeft=2;endArrow=block;rounded=0;entryX=1;entryY=0;" parent="4ZbNPeoZiNgP81Eea5ZC-0" target="4ZbNPeoZiNgP81Eea5ZC-12" edge="1">
                    <mxGeometry relative="1" as="geometry">
                        <mxPoint x="50" y="476.8472906403941" as="sourcePoint"/>
                        <Array as="points">
                            <mxPoint x="75" y="476.8472906403941"/>
                        </Array>
                    </mxGeometry>
                </mxCell>
                <mxCell id="4ZbNPeoZiNgP81Eea5ZC-38" value="" style="html=1;points=[];perimeter=orthogonalPerimeter;" parent="4ZbNPeoZiNgP81Eea5ZC-0" vertex="1">
                    <mxGeometry x="45" y="670" width="10" height="170" as="geometry"/>
                </mxCell>
                <mxCell id="4ZbNPeoZiNgP81Eea5ZC-39" value="&lt;b&gt;&lt;font style=&quot;font-size: 17px&quot;&gt;Build()&lt;/font&gt;&lt;/b&gt;" style="edgeStyle=orthogonalEdgeStyle;html=1;align=left;spacingLeft=2;endArrow=block;rounded=0;entryX=1;entryY=0;strokeWidth=5;" parent="4ZbNPeoZiNgP81Eea5ZC-0" target="4ZbNPeoZiNgP81Eea5ZC-38" edge="1">
                    <mxGeometry relative="1" as="geometry">
                        <mxPoint x="50" y="650" as="sourcePoint"/>
                        <Array as="points">
                            <mxPoint x="75" y="650"/>
                        </Array>
                    </mxGeometry>
                </mxCell>
                <mxCell id="4ZbNPeoZiNgP81Eea5ZC-50" value="" style="html=1;points=[];perimeter=orthogonalPerimeter;" parent="4ZbNPeoZiNgP81Eea5ZC-0" vertex="1">
                    <mxGeometry x="45" y="910" width="10" height="80" as="geometry"/>
                </mxCell>
                <mxCell id="4ZbNPeoZiNgP81Eea5ZC-47" value="&lt;pre style=&quot;background-color: #2b2b2b ; color: #a9b7c6 ; font-family: &amp;#34;menlo&amp;#34; , monospace ; font-size: 12.0pt&quot;&gt;List&amp;lt;Converter.Factory&amp;gt; &lt;span style=&quot;color: #9876aa&quot;&gt;converterFactories&lt;/span&gt;&lt;/pre&gt;" style="text;html=1;align=center;verticalAlign=middle;resizable=0;points=[];autosize=1;" parent="4ZbNPeoZiNgP81Eea5ZC-9" vertex="1">
                    <mxGeometry x="70" y="415" width="420" height="50" as="geometry"/>
                </mxCell>
                <mxCell id="4ZbNPeoZiNgP81Eea5ZC-25" value="" style="group" parent="vNsNvMxjZOVm_oqjdoPh-6" vertex="1" connectable="0">
                    <mxGeometry x="420" y="11.559934318554951" width="170" height="1070" as="geometry"/>
                </mxCell>
                <mxCell id="4ZbNPeoZiNgP81Eea5ZC-8" value="" style="group" parent="4ZbNPeoZiNgP81Eea5ZC-25" vertex="1" connectable="0">
                    <mxGeometry width="170" height="1070" as="geometry"/>
                </mxCell>
                <mxCell id="4ZbNPeoZiNgP81Eea5ZC-5" value="&lt;b&gt;&lt;font style=&quot;font-size: 18px&quot;&gt;OKHttp3.HttpUrl&lt;/font&gt;&lt;/b&gt;" style="shape=umlLifeline;perimeter=lifelinePerimeter;whiteSpace=wrap;html=1;container=1;collapsible=0;recursiveResize=0;outlineConnect=0;" parent="4ZbNPeoZiNgP81Eea5ZC-8" vertex="1">
                    <mxGeometry width="170" height="1070" as="geometry"/>
                </mxCell>
                <mxCell id="4ZbNPeoZiNgP81Eea5ZC-7" value="" style="html=1;points=[];perimeter=orthogonalPerimeter;" parent="4ZbNPeoZiNgP81Eea5ZC-5" vertex="1">
                    <mxGeometry x="80" y="274.54844006568146" width="10" height="115.59934318555008" as="geometry"/>
                </mxCell>
                <mxCell id="4ZbNPeoZiNgP81Eea5ZC-6" style="edgeStyle=orthogonalEdgeStyle;rounded=0;orthogonalLoop=1;jettySize=auto;html=1;entryX=-0.279;entryY=0.778;entryDx=0;entryDy=0;entryPerimeter=0;" parent="vNsNvMxjZOVm_oqjdoPh-6" source="4ZbNPeoZiNgP81Eea5ZC-3" target="4ZbNPeoZiNgP81Eea5ZC-7" edge="1">
                    <mxGeometry relative="1" as="geometry">
                        <mxPoint x="360" y="375.69786535303774" as="targetPoint"/>
                    </mxGeometry>
                </mxCell>
                <mxCell id="4ZbNPeoZiNgP81Eea5ZC-26" value="" style="group" parent="vNsNvMxjZOVm_oqjdoPh-6" vertex="1" connectable="0">
                    <mxGeometry x="670" y="10.114942528735583" width="260" height="1070" as="geometry"/>
                </mxCell>
                <mxCell id="4ZbNPeoZiNgP81Eea5ZC-14" value="&lt;font style=&quot;font-size: 17px&quot;&gt;GsonConvertFacty&lt;/font&gt;" style="shape=umlLifeline;perimeter=lifelinePerimeter;whiteSpace=wrap;html=1;container=1;collapsible=0;recursiveResize=0;outlineConnect=0;fillColor=#6a00ff;strokeColor=#3700CC;fontColor=#ffffff;" parent="4ZbNPeoZiNgP81Eea5ZC-26" vertex="1">
                    <mxGeometry x="67" width="193" height="1070" as="geometry"/>
                </mxCell>
                <mxCell id="4ZbNPeoZiNgP81Eea5ZC-17" value="" style="html=1;points=[];perimeter=orthogonalPerimeter;" parent="4ZbNPeoZiNgP81Eea5ZC-14" vertex="1">
                    <mxGeometry x="91.5" y="567.8817733990148" width="10" height="33.23481116584565" as="geometry"/>
                </mxCell>
                <mxCell id="4ZbNPeoZiNgP81Eea5ZC-21" value="" style="html=1;points=[];perimeter=orthogonalPerimeter;" parent="4ZbNPeoZiNgP81Eea5ZC-14" vertex="1">
                    <mxGeometry x="91.5" y="495.63218390804604" width="10" height="44.794745484400664" as="geometry"/>
                </mxCell>
                <mxCell id="4ZbNPeoZiNgP81Eea5ZC-19" value="&lt;pre style=&quot;background-color: #2b2b2b ; color: #a9b7c6 ; font-family: &amp;#34;menlo&amp;#34; , monospace ; font-size: 12.0pt&quot;&gt;ScalarsConverterFactory&lt;/pre&gt;&lt;pre style=&quot;background-color: #2b2b2b ; color: #a9b7c6 ; font-family: &amp;#34;menlo&amp;#34; , monospace ; font-size: 12.0pt&quot;&gt;&lt;pre style=&quot;font-family: &amp;#34;menlo&amp;#34; , monospace ; font-size: 12pt&quot;&gt;BuiltInConverters&lt;/pre&gt;&lt;pre style=&quot;font-family: &amp;#34;menlo&amp;#34; , monospace ; font-size: 12pt&quot;&gt;OptionalConverterFactory&lt;/pre&gt;&lt;pre style=&quot;font-family: &amp;#34;menlo&amp;#34; , monospace ; font-size: 12pt&quot;&gt;ScalarsConverterFactory&lt;/pre&gt;&lt;/pre&gt;" style="shape=note;whiteSpace=wrap;html=1;size=14;verticalAlign=top;align=left;spacingTop=-6;" parent="4ZbNPeoZiNgP81Eea5ZC-26" vertex="1">
                    <mxGeometry y="105.48440065681444" width="260" height="216.74876847290642" as="geometry"/>
                </mxCell>
                <mxCell id="4ZbNPeoZiNgP81Eea5ZC-18" style="edgeStyle=orthogonalEdgeStyle;rounded=0;orthogonalLoop=1;jettySize=auto;html=1;entryX=0.15;entryY=0.75;entryDx=0;entryDy=0;entryPerimeter=0;" parent="vNsNvMxjZOVm_oqjdoPh-6" source="4ZbNPeoZiNgP81Eea5ZC-12" target="4ZbNPeoZiNgP81Eea5ZC-17" edge="1">
                    <mxGeometry relative="1" as="geometry">
                        <Array as="points">
                            <mxPoint x="240" y="602.5615763546798"/>
                            <mxPoint x="240" y="602.5615763546798"/>
                        </Array>
                    </mxGeometry>
                </mxCell>
                <mxCell id="4ZbNPeoZiNgP81Eea5ZC-22" style="edgeStyle=orthogonalEdgeStyle;rounded=0;orthogonalLoop=1;jettySize=auto;html=1;entryX=0.921;entryY=0.28;entryDx=0;entryDy=0;entryPerimeter=0;fillColor=#008a00;strokeColor=#005700;strokeWidth=5;" parent="vNsNvMxjZOVm_oqjdoPh-6" source="4ZbNPeoZiNgP81Eea5ZC-21" target="4ZbNPeoZiNgP81Eea5ZC-12" edge="1">
                    <mxGeometry relative="1" as="geometry">
                        <Array as="points">
                            <mxPoint x="750" y="541.8719211822661"/>
                            <mxPoint x="750" y="541.8719211822661"/>
                        </Array>
                    </mxGeometry>
                </mxCell>
                <mxCell id="4ZbNPeoZiNgP81Eea5ZC-23" value="&lt;b&gt;&lt;font style=&quot;font-size: 17px&quot;&gt;create(Gson)&lt;/font&gt;&lt;/b&gt;" style="edgeLabel;html=1;align=center;verticalAlign=middle;resizable=0;points=[];" parent="4ZbNPeoZiNgP81Eea5ZC-22" vertex="1" connectable="0">
                    <mxGeometry x="-0.3431" y="2" relative="1" as="geometry">
                        <mxPoint as="offset"/>
                    </mxGeometry>
                </mxCell>
                <mxCell id="4ZbNPeoZiNgP81Eea5ZC-48" value="" style="group;" parent="vNsNvMxjZOVm_oqjdoPh-6" vertex="1" connectable="0">
                    <mxGeometry x="1040" y="10" width="250" height="1080" as="geometry"/>
                </mxCell>
                <mxCell id="4ZbNPeoZiNgP81Eea5ZC-46" value="" style="group" parent="4ZbNPeoZiNgP81Eea5ZC-48" vertex="1" connectable="0">
                    <mxGeometry width="250" height="1080" as="geometry"/>
                </mxCell>
                <mxCell id="4ZbNPeoZiNgP81Eea5ZC-31" value="&lt;b style=&quot;font-size: 17px&quot;&gt;OKHttp3.&lt;span style=&quot;color: rgb(255 , 198 , 109) ; background-color: rgb(43 , 43 , 43) ; font-family: &amp;#34;menlo&amp;#34; , monospace&quot;&gt;OkHttpClient&lt;/span&gt;&lt;/b&gt;" style="shape=umlLifeline;perimeter=lifelinePerimeter;whiteSpace=wrap;html=1;container=1;collapsible=0;recursiveResize=0;outlineConnect=0;fillColor=#0050ef;strokeColor=#001DBC;fontColor=#ffffff;" parent="4ZbNPeoZiNgP81Eea5ZC-46" vertex="1">
                    <mxGeometry width="250" height="1080" as="geometry"/>
                </mxCell>
                <mxCell id="4ZbNPeoZiNgP81Eea5ZC-33" value="" style="html=1;points=[];perimeter=orthogonalPerimeter;" parent="4ZbNPeoZiNgP81Eea5ZC-31" vertex="1">
                    <mxGeometry x="120" y="660" width="10" height="150" as="geometry"/>
                </mxCell>
                <mxCell id="4ZbNPeoZiNgP81Eea5ZC-40" style="edgeStyle=orthogonalEdgeStyle;rounded=0;orthogonalLoop=1;jettySize=auto;html=1;entryX=0;entryY=0.133;entryDx=0;entryDy=0;entryPerimeter=0;strokeWidth=5;" parent="vNsNvMxjZOVm_oqjdoPh-6" source="4ZbNPeoZiNgP81Eea5ZC-38" target="4ZbNPeoZiNgP81Eea5ZC-33" edge="1">
                    <mxGeometry relative="1" as="geometry">
                        <Array as="points">
                            <mxPoint x="340" y="690"/>
                            <mxPoint x="340" y="690"/>
                        </Array>
                    </mxGeometry>
                </mxCell>
                <mxCell id="4ZbNPeoZiNgP81Eea5ZC-41" value="&lt;pre style=&quot;background-color: #2b2b2b ; color: #a9b7c6 ; font-family: &amp;#34;menlo&amp;#34; , monospace ; font-size: 12.0pt&quot;&gt;okhttp3.Call.Factory &lt;/pre&gt;" style="edgeLabel;html=1;align=center;verticalAlign=middle;resizable=0;points=[];" parent="4ZbNPeoZiNgP81Eea5ZC-40" vertex="1" connectable="0">
                    <mxGeometry x="-0.5589" y="-3" relative="1" as="geometry">
                        <mxPoint as="offset"/>
                    </mxGeometry>
                </mxCell>
                <mxCell id="4ZbNPeoZiNgP81Eea5ZC-49" value="&lt;b&gt;&lt;font style=&quot;font-size: 18px&quot;&gt;&amp;lt;&amp;lt;API Interface&amp;gt;&amp;gt;&lt;/font&gt;&lt;/b&gt;&lt;span style=&quot;background-color: rgb(43 , 43 , 43) ; color: rgb(169 , 183 , 198) ; font-family: &amp;#34;menlo&amp;#34; , monospace ; font-size: 12pt&quot;&gt;&amp;lt;T&amp;gt; T&lt;/span&gt;" style="shape=umlLifeline;perimeter=lifelinePerimeter;whiteSpace=wrap;html=1;container=1;collapsible=0;recursiveResize=0;outlineConnect=0;" parent="vNsNvMxjZOVm_oqjdoPh-6" vertex="1">
                    <mxGeometry x="1320" y="11.559999999999945" width="240" height="1128.44" as="geometry"/>
                </mxCell>
                <mxCell id="4ZbNPeoZiNgP81Eea5ZC-51" value="" style="html=1;points=[];perimeter=orthogonalPerimeter;" parent="4ZbNPeoZiNgP81Eea5ZC-49" vertex="1">
                    <mxGeometry x="115" y="878.44" width="10" height="80" as="geometry"/>
                </mxCell>
                <mxCell id="4ZbNPeoZiNgP81Eea5ZC-59" value="" style="html=1;points=[];perimeter=orthogonalPerimeter;" parent="4ZbNPeoZiNgP81Eea5ZC-49" vertex="1">
                    <mxGeometry x="115" y="998.44" width="10" height="40" as="geometry"/>
                </mxCell>
                <mxCell id="4ZbNPeoZiNgP81Eea5ZC-60" value="&lt;pre style=&quot;background-color: #2b2b2b ; color: #a9b7c6 ; font-family: &amp;#34;menlo&amp;#34; , monospace ; font-size: 12.0pt&quot;&gt;&lt;span style=&quot;color: #ffc66d&quot;&gt;enqueue&lt;/span&gt;(Callback&amp;lt;&lt;span style=&quot;color: #507874&quot;&gt;T&lt;/span&gt;&amp;gt; callback)&lt;/pre&gt;" style="edgeStyle=orthogonalEdgeStyle;html=1;align=left;spacingLeft=2;endArrow=block;rounded=0;entryX=1;entryY=0;strokeWidth=5;" parent="4ZbNPeoZiNgP81Eea5ZC-49" target="4ZbNPeoZiNgP81Eea5ZC-59" edge="1">
                    <mxGeometry relative="1" as="geometry">
                        <mxPoint x="120" y="978.44" as="sourcePoint"/>
                        <Array as="points">
                            <mxPoint x="145" y="978.44"/>
                        </Array>
                    </mxGeometry>
                </mxCell>
                <mxCell id="4ZbNPeoZiNgP81Eea5ZC-52" style="edgeStyle=orthogonalEdgeStyle;rounded=0;orthogonalLoop=1;jettySize=auto;html=1;entryX=0.121;entryY=0.738;entryDx=0;entryDy=0;entryPerimeter=0;strokeWidth=5;" parent="vNsNvMxjZOVm_oqjdoPh-6" source="4ZbNPeoZiNgP81Eea5ZC-50" target="4ZbNPeoZiNgP81Eea5ZC-51" edge="1">
                    <mxGeometry relative="1" as="geometry"/>
                </mxCell>
                <mxCell id="4ZbNPeoZiNgP81Eea5ZC-56" value="&lt;pre style=&quot;background-color: #2b2b2b ; color: #a9b7c6 ; font-family: &amp;#34;menlo&amp;#34; , monospace ; font-size: 12.0pt&quot;&gt;&lt;span style=&quot;color: #ffc66d&quot;&gt;create&lt;/span&gt;(&lt;span style=&quot;color: #cc7832&quot;&gt;final &lt;/span&gt;Class&amp;lt;&lt;span style=&quot;color: #507874&quot;&gt;T&lt;/span&gt;&amp;gt; service)----&amp;gt;Proxy.&lt;span style=&quot;font-family: &amp;#34;menlo&amp;#34; , monospace ; font-size: 12pt ; font-style: italic&quot;&gt;newProxyInstance&lt;/span&gt;&lt;/pre&gt;" style="edgeLabel;html=1;align=center;verticalAlign=middle;resizable=0;points=[];" parent="4ZbNPeoZiNgP81Eea5ZC-52" vertex="1" connectable="0">
                    <mxGeometry x="-0.0002" y="516" relative="1" as="geometry">
                        <mxPoint x="-385.03" y="517" as="offset"/>
                    </mxGeometry>
                </mxCell>
                <mxCell id="4ZbNPeoZiNgP81Eea5ZC-57" value="&lt;pre style=&quot;background-color: rgb(43 , 43 , 43) ; color: rgb(169 , 183 , 198) ; font-family: &amp;#34;menlo&amp;#34; , monospace ; font-size: 18px&quot;&gt;&lt;b&gt; OkHttpCall&amp;lt;&lt;span style=&quot;color: #507874&quot;&gt;T&lt;/span&gt;&amp;gt; &lt;span style=&quot;color: #cc7832&quot;&gt;implements &lt;/span&gt;Call&amp;lt;&lt;span style=&quot;color: #507874&quot;&gt;T&lt;/span&gt;&amp;gt; &lt;/b&gt;&lt;/pre&gt;" style="shape=umlLifeline;perimeter=lifelinePerimeter;whiteSpace=wrap;html=1;container=1;collapsible=0;recursiveResize=0;outlineConnect=0;fillColor=#0050ef;strokeColor=#001DBC;fontColor=#ffffff;" parent="vNsNvMxjZOVm_oqjdoPh-6" vertex="1">
                    <mxGeometry x="1700" y="20" width="370" height="1060" as="geometry"/>
                </mxCell>
                <mxCell id="4ZbNPeoZiNgP81Eea5ZC-58" value="" style="html=1;points=[];perimeter=orthogonalPerimeter;" parent="4ZbNPeoZiNgP81Eea5ZC-57" vertex="1">
                    <mxGeometry x="180" y="950" width="10" height="80" as="geometry"/>
                </mxCell>
                <mxCell id="4ZbNPeoZiNgP81Eea5ZC-64" value="&lt;pre style=&quot;background-color: #2b2b2b ; color: #a9b7c6 ; font-family: &amp;#34;menlo&amp;#34; , monospace ; font-size: 12.0pt&quot;&gt;&lt;span style=&quot;color: #ffc66d&quot;&gt;createRawCall&lt;/span&gt;&lt;/pre&gt;" style="edgeStyle=orthogonalEdgeStyle;html=1;align=left;spacingLeft=2;endArrow=block;rounded=0;entryX=1;entryY=0;strokeWidth=5;" parent="4ZbNPeoZiNgP81Eea5ZC-57" edge="1">
                    <mxGeometry relative="1" as="geometry">
                        <mxPoint x="190" y="960" as="sourcePoint"/>
                        <Array as="points">
                            <mxPoint x="215" y="960"/>
                        </Array>
                        <mxPoint x="195" y="980" as="targetPoint"/>
                    </mxGeometry>
                </mxCell>
                <mxCell id="4ZbNPeoZiNgP81Eea5ZC-61" style="edgeStyle=orthogonalEdgeStyle;rounded=0;orthogonalLoop=1;jettySize=auto;html=1;entryX=1.141;entryY=0.89;entryDx=0;entryDy=0;entryPerimeter=0;strokeWidth=5;" parent="vNsNvMxjZOVm_oqjdoPh-6" source="4ZbNPeoZiNgP81Eea5ZC-58" target="4ZbNPeoZiNgP81Eea5ZC-59" edge="1">
                    <mxGeometry relative="1" as="geometry">
                        <Array as="points">
                            <mxPoint x="1663" y="1040"/>
                            <mxPoint x="1663" y="1046"/>
                        </Array>
                    </mxGeometry>
                </mxCell>
                <mxCell id="4ZbNPeoZiNgP81Eea5ZC-62" value="&lt;pre style=&quot;background-color: #2b2b2b ; color: #a9b7c6 ; font-family: &amp;#34;menlo&amp;#34; , monospace ; font-size: 12.0pt&quot;&gt;Callback&lt;/pre&gt;" style="edgeLabel;html=1;align=center;verticalAlign=middle;resizable=0;points=[];" parent="4ZbNPeoZiNgP81Eea5ZC-61" vertex="1" connectable="0">
                    <mxGeometry y="59" relative="1" as="geometry">
                        <mxPoint as="offset"/>
                    </mxGeometry>
                </mxCell>
                <mxCell id="vNsNvMxjZOVm_oqjdoPh-0" value="&lt;pre style=&quot;background-color: rgb(43 , 43 , 43) ; color: rgb(169 , 183 , 198) ; font-family: &amp;#34;menlo&amp;#34; , monospace ; font-size: 18px&quot;&gt;&lt;b&gt;Response&amp;lt;&lt;span style=&quot;color: #507874&quot;&gt;T&lt;/span&gt;&amp;gt;&lt;/b&gt;&lt;/pre&gt;" style="shape=umlLifeline;perimeter=lifelinePerimeter;whiteSpace=wrap;html=1;container=1;collapsible=0;recursiveResize=0;outlineConnect=0;fillColor=#0050ef;strokeColor=#001DBC;fontColor=#ffffff;" parent="vNsNvMxjZOVm_oqjdoPh-6" vertex="1">
                    <mxGeometry x="2190" y="20" width="170" height="1070" as="geometry"/>
                </mxCell>
                <mxCell id="vNsNvMxjZOVm_oqjdoPh-2" value="" style="html=1;points=[];perimeter=orthogonalPerimeter;" parent="vNsNvMxjZOVm_oqjdoPh-6" vertex="1">
                    <mxGeometry x="2270" y="430" width="10" height="650" as="geometry"/>
                </mxCell>
                <mxCell id="vNsNvMxjZOVm_oqjdoPh-3" style="edgeStyle=orthogonalEdgeStyle;rounded=0;orthogonalLoop=1;jettySize=auto;html=1;entryX=0;entryY=0.984;entryDx=0;entryDy=0;entryPerimeter=0;strokeWidth=5;exitX=0.981;exitY=0.84;exitDx=0;exitDy=0;exitPerimeter=0;" parent="vNsNvMxjZOVm_oqjdoPh-6" source="4ZbNPeoZiNgP81Eea5ZC-58" target="vNsNvMxjZOVm_oqjdoPh-2" edge="1">
                    <mxGeometry relative="1" as="geometry"/>
                </mxCell>
                <mxCell id="vNsNvMxjZOVm_oqjdoPh-5" value="&lt;pre style=&quot;background-color: #2b2b2b ; color: #a9b7c6 ; font-family: &amp;#34;menlo&amp;#34; , monospace ; font-size: 12.0pt&quot;&gt;&lt;span style=&quot;color: #ffc66d&quot;&gt;parseResponse&lt;/span&gt;&lt;/pre&gt;" style="edgeLabel;html=1;align=center;verticalAlign=middle;resizable=0;points=[];" parent="vNsNvMxjZOVm_oqjdoPh-3" vertex="1" connectable="0">
                    <mxGeometry x="-0.6171" y="-3" relative="1" as="geometry">
                        <mxPoint as="offset"/>
                    </mxGeometry>
                </mxCell>
                <mxCell id="4ZbNPeoZiNgP81Eea5ZC-42" style="edgeStyle=orthogonalEdgeStyle;rounded=0;orthogonalLoop=1;jettySize=auto;html=1;entryX=0;entryY=0.667;entryDx=0;entryDy=0;entryPerimeter=0;strokeWidth=5;" parent="vNsNvMxjZOVm_oqjdoPh-6" source="4ZbNPeoZiNgP81Eea5ZC-38" target="4ZbNPeoZiNgP81Eea5ZC-33" edge="1">
                    <mxGeometry relative="1" as="geometry"/>
                </mxCell>
                <mxCell id="4ZbNPeoZiNgP81Eea5ZC-43" value="&lt;pre style=&quot;background-color: #2b2b2b ; color: #a9b7c6 ; font-family: &amp;#34;menlo&amp;#34; , monospace ; font-size: 12.0pt&quot;&gt;Executor &lt;span style=&quot;color: #9876aa&quot;&gt;callbackExecutor&lt;/span&gt;&lt;/pre&gt;" style="edgeLabel;html=1;align=center;verticalAlign=middle;resizable=0;points=[];" parent="4ZbNPeoZiNgP81Eea5ZC-42" vertex="1" connectable="0">
                    <mxGeometry x="-0.395" relative="1" as="geometry">
                        <mxPoint as="offset"/>
                    </mxGeometry>
                </mxCell>
                <mxCell id="4ZbNPeoZiNgP81Eea5ZC-44" style="edgeStyle=orthogonalEdgeStyle;rounded=0;orthogonalLoop=1;jettySize=auto;html=1;strokeWidth=5;entryX=0.081;entryY=0.888;entryDx=0;entryDy=0;entryPerimeter=0;" parent="vNsNvMxjZOVm_oqjdoPh-6" source="4ZbNPeoZiNgP81Eea5ZC-38" target="4ZbNPeoZiNgP81Eea5ZC-33" edge="1">
                    <mxGeometry relative="1" as="geometry">
                        <Array as="points">
                            <mxPoint x="330" y="803"/>
                            <mxPoint x="330" y="803"/>
                        </Array>
                    </mxGeometry>
                </mxCell>
                <mxCell id="4ZbNPeoZiNgP81Eea5ZC-45" value="&lt;pre style=&quot;background-color: #2b2b2b ; color: #a9b7c6 ; font-family: &amp;#34;menlo&amp;#34; , monospace ; font-size: 12.0pt&quot;&gt;List&amp;lt;CallAdapter.Factory&amp;gt; &lt;span style=&quot;color: #9876aa&quot;&gt;callAdapterFactories&lt;/span&gt;&lt;/pre&gt;" style="edgeLabel;html=1;align=center;verticalAlign=middle;resizable=0;points=[];" parent="4ZbNPeoZiNgP81Eea5ZC-44" vertex="1" connectable="0">
                    <mxGeometry x="-0.4198" y="-2" relative="1" as="geometry">
                        <mxPoint as="offset"/>
                    </mxGeometry>
                </mxCell>
                <mxCell id="vNsNvMxjZOVm_oqjdoPh-9" value="" style="group;fillColor=#6a00ff;strokeColor=#3700CC;fontColor=#ffffff;" parent="wCDfZKwV8gHTYz6PKGLF-1" vertex="1" connectable="0">
                    <mxGeometry x="870" y="370" width="910" height="510" as="geometry"/>
                </mxCell>
                <mxCell id="20AoWpjKIzzLmUscgVsC-18" value="«interface»&lt;br&gt;&lt;b&gt;Conver&lt;/b&gt;" style="html=1;fontSize=17;" parent="vNsNvMxjZOVm_oqjdoPh-9" vertex="1">
                    <mxGeometry x="10" y="10" width="210" height="200" as="geometry"/>
                </mxCell>
                <mxCell id="20AoWpjKIzzLmUscgVsC-24" value="" style="endArrow=open;startArrow=circlePlus;endFill=0;startFill=0;endSize=8;html=1;fontSize=17;exitX=1.012;exitY=0.62;exitDx=0;exitDy=0;entryX=0;entryY=0.5;entryDx=0;entryDy=0;exitPerimeter=0;" parent="vNsNvMxjZOVm_oqjdoPh-9" source="20AoWpjKIzzLmUscgVsC-18" target="20AoWpjKIzzLmUscgVsC-21" edge="1">
                    <mxGeometry width="160" relative="1" as="geometry">
                        <mxPoint x="-230" y="200" as="sourcePoint"/>
                        <mxPoint x="-70" y="200" as="targetPoint"/>
                    </mxGeometry>
                </mxCell>
                <mxCell id="20AoWpjKIzzLmUscgVsC-20" value=" Factory" style="swimlane;fontStyle=1;align=center;verticalAlign=top;childLayout=stackLayout;horizontal=1;startSize=26;horizontalStack=0;resizeParent=1;resizeParentMax=0;resizeLast=0;collapsible=1;marginBottom=0;fontSize=17;" parent="vNsNvMxjZOVm_oqjdoPh-9" vertex="1">
                    <mxGeometry x="300" width="610" height="268" as="geometry"/>
                </mxCell>
                <mxCell id="20AoWpjKIzzLmUscgVsC-21" value="Converter&lt;ResponseBody, ?&gt; responseBodyConverter(&#10;    Type type, Annotation[] annotations, Retrofit retrofit) " style="text;strokeColor=none;fillColor=none;align=left;verticalAlign=top;spacingLeft=4;spacingRight=4;overflow=hidden;rotatable=0;points=[[0,0.5],[1,0.5]];portConstraint=eastwest;fontSize=17;fontStyle=1;fontColor=#FFD966;" parent="20AoWpjKIzzLmUscgVsC-20" vertex="1">
                    <mxGeometry y="26" width="610" height="84" as="geometry"/>
                </mxCell>
                <mxCell id="20AoWpjKIzzLmUscgVsC-22" value="" style="line;strokeWidth=1;fillColor=none;align=left;verticalAlign=middle;spacingTop=-1;spacingLeft=3;spacingRight=3;rotatable=0;labelPosition=right;points=[];portConstraint=eastwest;" parent="20AoWpjKIzzLmUscgVsC-20" vertex="1">
                    <mxGeometry y="110" width="610" height="8" as="geometry"/>
                </mxCell>
                <mxCell id="20AoWpjKIzzLmUscgVsC-23" value="Converter&lt;?, RequestBody&gt; requestBodyConverter(&#10;    Type type,&#10;    Annotation[] parameterAnnotations,&#10;    Annotation[] methodAnnotations,&#10;    Retrofit retrofit)" style="text;strokeColor=none;fillColor=none;align=left;verticalAlign=top;spacingLeft=4;spacingRight=4;overflow=hidden;rotatable=0;points=[[0,0.5],[1,0.5]];portConstraint=eastwest;fontSize=17;fontStyle=1;fontColor=#FFD966;" parent="20AoWpjKIzzLmUscgVsC-20" vertex="1">
                    <mxGeometry y="118" width="610" height="150" as="geometry"/>
                </mxCell>
                <mxCell id="vNsNvMxjZOVm_oqjdoPh-18" value="Extends" style="endArrow=block;endSize=16;endFill=0;html=1;strokeWidth=5;entryX=0.423;entryY=0.996;entryDx=0;entryDy=0;entryPerimeter=0;exitX=0.5;exitY=0;exitDx=0;exitDy=0;" parent="vNsNvMxjZOVm_oqjdoPh-9" source="vNsNvMxjZOVm_oqjdoPh-11" target="20AoWpjKIzzLmUscgVsC-23" edge="1">
                    <mxGeometry width="160" relative="1" as="geometry">
                        <mxPoint x="553" y="400" as="sourcePoint"/>
                        <mxPoint x="283" y="350" as="targetPoint"/>
                    </mxGeometry>
                </mxCell>
                <mxCell id="vNsNvMxjZOVm_oqjdoPh-11" value="GsonConverterFactory" style="swimlane;fontStyle=1;align=center;verticalAlign=top;childLayout=stackLayout;horizontal=1;startSize=26;horizontalStack=0;resizeParent=1;resizeParentMax=0;resizeLast=0;collapsible=1;marginBottom=0;fillColor=#60a917;strokeColor=#2D7600;fontColor=#ffffff;fontSize=18;" parent="vNsNvMxjZOVm_oqjdoPh-9" vertex="1">
                    <mxGeometry x="444" y="380" width="240" height="86" as="geometry"/>
                </mxCell>
                <mxCell id="vNsNvMxjZOVm_oqjdoPh-12" value="responseBodyConverter" style="text;strokeColor=none;fillColor=none;align=left;verticalAlign=top;spacingLeft=4;spacingRight=4;overflow=hidden;rotatable=0;points=[[0,0.5],[1,0.5]];portConstraint=eastwest;fontSize=18;" parent="vNsNvMxjZOVm_oqjdoPh-11" vertex="1">
                    <mxGeometry y="26" width="240" height="26" as="geometry"/>
                </mxCell>
                <mxCell id="vNsNvMxjZOVm_oqjdoPh-13" value="" style="line;strokeWidth=1;fillColor=none;align=left;verticalAlign=middle;spacingTop=-1;spacingLeft=3;spacingRight=3;rotatable=0;labelPosition=right;points=[];portConstraint=eastwest;" parent="vNsNvMxjZOVm_oqjdoPh-11" vertex="1">
                    <mxGeometry y="52" width="240" height="8" as="geometry"/>
                </mxCell>
                <mxCell id="vNsNvMxjZOVm_oqjdoPh-14" value="requestBodyConverter" style="text;strokeColor=none;fillColor=none;align=left;verticalAlign=top;spacingLeft=4;spacingRight=4;overflow=hidden;rotatable=0;points=[[0,0.5],[1,0.5]];portConstraint=eastwest;fontSize=18;" parent="vNsNvMxjZOVm_oqjdoPh-11" vertex="1">
                    <mxGeometry y="60" width="240" height="26" as="geometry"/>
                </mxCell>
                <mxCell id="vNsNvMxjZOVm_oqjdoPh-10" value="" style="group" parent="wCDfZKwV8gHTYz6PKGLF-1" vertex="1" connectable="0">
                    <mxGeometry x="980" y="900" width="490" height="185" as="geometry"/>
                </mxCell>
                <mxCell id="20AoWpjKIzzLmUscgVsC-17" value="«interface»&lt;br&gt;&lt;span style=&quot;background-color: rgb(43 , 43 , 43) ; color: rgb(169 , 183 , 198) ; font-family: &amp;#34;menlo&amp;#34; , monospace ; font-size: 12pt&quot;&gt;okhttp3。&lt;/span&gt;&lt;b&gt;Call&lt;br&gt;&lt;/b&gt;" style="html=1;fontSize=17;" parent="vNsNvMxjZOVm_oqjdoPh-10" vertex="1">
                    <mxGeometry width="250" height="185" as="geometry"/>
                </mxCell>
                <mxCell id="vNsNvMxjZOVm_oqjdoPh-7" value="«interface»&lt;br&gt;&lt;b&gt;&lt;font color=&quot;#a9b7c6&quot; face=&quot;menlo, monospace&quot;&gt;&lt;span style=&quot;font-size: 16px ; background-color: rgb(43 , 43 , 43)&quot;&gt;Factory&lt;br&gt;&lt;/span&gt;&lt;/font&gt;&lt;br&gt;&lt;/b&gt;" style="html=1;fontSize=17;" parent="vNsNvMxjZOVm_oqjdoPh-10" vertex="1">
                    <mxGeometry x="360" y="10" width="130" height="107" as="geometry"/>
                </mxCell>
                <mxCell id="vNsNvMxjZOVm_oqjdoPh-8" value="" style="endArrow=open;startArrow=circlePlus;endFill=0;startFill=0;endSize=8;html=1;fontSize=17;exitX=1.012;exitY=0.62;exitDx=0;exitDy=0;exitPerimeter=0;" parent="vNsNvMxjZOVm_oqjdoPh-10" target="vNsNvMxjZOVm_oqjdoPh-7" edge="1">
                    <mxGeometry width="160" relative="1" as="geometry">
                        <mxPoint x="249.99999999999955" y="140" as="sourcePoint"/>
                        <mxPoint x="337.47999999999956" y="-225.99999999999977" as="targetPoint"/>
                    </mxGeometry>
                </mxCell>
                <mxCell id="vNsNvMxjZOVm_oqjdoPh-24" value="Use" style="endArrow=open;endSize=12;dashed=1;html=1;strokeWidth=5;fontSize=18;entryX=0;entryY=0.25;entryDx=0;entryDy=0;" parent="wCDfZKwV8gHTYz6PKGLF-1" source="20AoWpjKIzzLmUscgVsC-3" target="vNsNvMxjZOVm_oqjdoPh-11" edge="1">
                    <mxGeometry width="160" relative="1" as="geometry">
                        <mxPoint x="730" y="880" as="sourcePoint"/>
                        <mxPoint x="890" y="880" as="targetPoint"/>
                    </mxGeometry>
                </mxCell>
                <mxCell id="vNsNvMxjZOVm_oqjdoPh-27" value="" style="group" parent="wCDfZKwV8gHTYz6PKGLF-1" vertex="1" connectable="0">
                    <mxGeometry x="10" y="50" width="720" height="570" as="geometry"/>
                </mxCell>
                <mxCell id="20AoWpjKIzzLmUscgVsC-11" value="Platform" style="swimlane;fontStyle=1;align=center;verticalAlign=top;childLayout=stackLayout;horizontal=1;startSize=26;horizontalStack=0;resizeParent=1;resizeParentMax=0;resizeLast=0;collapsible=1;marginBottom=0;fontSize=18;" parent="vNsNvMxjZOVm_oqjdoPh-27" vertex="1">
                    <mxGeometry x="604.8" y="9.499999999999998" width="115.2" height="83" as="geometry"/>
                </mxCell>
                <mxCell id="20AoWpjKIzzLmUscgVsC-12" value="+ field: type" style="text;strokeColor=none;fillColor=none;align=left;verticalAlign=top;spacingLeft=4;spacingRight=4;overflow=hidden;rotatable=0;points=[[0,0.5],[1,0.5]];portConstraint=eastwest;" parent="20AoWpjKIzzLmUscgVsC-11" vertex="1">
                    <mxGeometry y="26" width="115.2" height="24.700000000000003" as="geometry"/>
                </mxCell>
                <mxCell id="20AoWpjKIzzLmUscgVsC-13" value="" style="line;strokeWidth=1;fillColor=none;align=left;verticalAlign=middle;spacingTop=-1;spacingLeft=3;spacingRight=3;rotatable=0;labelPosition=right;points=[];portConstraint=eastwest;" parent="20AoWpjKIzzLmUscgVsC-11" vertex="1">
                    <mxGeometry y="50.7" width="115.2" height="7.6000000000000005" as="geometry"/>
                </mxCell>
                <mxCell id="20AoWpjKIzzLmUscgVsC-14" value="+ method(type): type" style="text;strokeColor=none;fillColor=none;align=left;verticalAlign=top;spacingLeft=4;spacingRight=4;overflow=hidden;rotatable=0;points=[[0,0.5],[1,0.5]];portConstraint=eastwest;" parent="20AoWpjKIzzLmUscgVsC-11" vertex="1">
                    <mxGeometry y="58.300000000000004" width="115.2" height="24.700000000000003" as="geometry"/>
                </mxCell>
                <mxCell id="20AoWpjKIzzLmUscgVsC-0" value="Builder" style="swimlane;fontStyle=1;childLayout=stackLayout;horizontal=1;startSize=26;fillColor=none;horizontalStack=0;resizeParent=1;resizeParentMax=0;resizeLast=0;collapsible=1;marginBottom=0;fontSize=18;" parent="vNsNvMxjZOVm_oqjdoPh-27" vertex="1">
                    <mxGeometry y="360.99999999999994" width="496.8" height="210.3" as="geometry"/>
                </mxCell>
                <mxCell id="20AoWpjKIzzLmUscgVsC-1" value="private @Nullable okhttp3.Call.Factory callFactory" style="text;strokeColor=none;fillColor=none;align=left;verticalAlign=top;spacingLeft=4;spacingRight=4;overflow=hidden;rotatable=0;points=[[0,0.5],[1,0.5]];portConstraint=eastwest;fontSize=17;" parent="20AoWpjKIzzLmUscgVsC-0" vertex="1">
                    <mxGeometry y="26" width="496.8" height="24.7" as="geometry"/>
                </mxCell>
                <mxCell id="20AoWpjKIzzLmUscgVsC-2" value="private @Nullable HttpUrl baseUrl" style="text;strokeColor=none;fillColor=none;align=left;verticalAlign=top;spacingLeft=4;spacingRight=4;overflow=hidden;rotatable=0;points=[[0,0.5],[1,0.5]];portConstraint=eastwest;fontSize=17;" parent="20AoWpjKIzzLmUscgVsC-0" vertex="1">
                    <mxGeometry y="50.7" width="496.8" height="24.7" as="geometry"/>
                </mxCell>
                <mxCell id="20AoWpjKIzzLmUscgVsC-3" value="private @Nullable Executor callbackExecutor&#10;&#10;private final List&lt;Converter.Factory&gt; converterFactories = new ArrayList&lt;&gt;();&#10;private final List&lt;CallAdapter.Factory&gt; callAdapterFactories = new ArrayList&lt;&gt;();&#10;&#10;private final Platform platform;&#10;&#10;&#10;" style="text;strokeColor=none;fillColor=none;align=left;verticalAlign=top;spacingLeft=4;spacingRight=4;overflow=hidden;rotatable=0;points=[[0,0.5],[1,0.5]];portConstraint=eastwest;fontSize=17;fontStyle=1" parent="20AoWpjKIzzLmUscgVsC-0" vertex="1">
                    <mxGeometry y="75.4" width="496.8" height="134.9" as="geometry"/>
                </mxCell>
                <mxCell id="vNsNvMxjZOVm_oqjdoPh-15" value="&lt;pre style=&quot;background-color: #2b2b2b ; color: #a9b7c6 ; font-family: &amp;#34;menlo&amp;#34; , monospace ; font-size: 12.0pt&quot;&gt;okhttp.HttpUrl&lt;/pre&gt;" style="html=1;" parent="vNsNvMxjZOVm_oqjdoPh-27" vertex="1">
                    <mxGeometry x="100.79999999999998" width="201.59999999999997" height="47.5" as="geometry"/>
                </mxCell>
                <mxCell id="vNsNvMxjZOVm_oqjdoPh-17" value="Use" style="endArrow=open;endSize=12;dashed=1;html=1;strokeWidth=5;entryX=0;entryY=0.5;entryDx=0;entryDy=0;exitX=0.42;exitY=-0.005;exitDx=0;exitDy=0;exitPerimeter=0;" parent="vNsNvMxjZOVm_oqjdoPh-27" source="20AoWpjKIzzLmUscgVsC-0" target="vNsNvMxjZOVm_oqjdoPh-15" edge="1">
                    <mxGeometry width="160" relative="1" as="geometry">
                        <mxPoint x="208.79999999999998" y="351.5" as="sourcePoint"/>
                        <mxPoint x="756" y="674.5" as="targetPoint"/>
                    </mxGeometry>
                </mxCell>
                <mxCell id="vNsNvMxjZOVm_oqjdoPh-26" value="Use" style="endArrow=open;endSize=12;dashed=1;html=1;strokeWidth=5;entryX=0;entryY=0.5;entryDx=0;entryDy=0;" parent="vNsNvMxjZOVm_oqjdoPh-27" source="20AoWpjKIzzLmUscgVsC-3" target="20AoWpjKIzzLmUscgVsC-12" edge="1">
                    <mxGeometry width="160" relative="1" as="geometry">
                        <mxPoint x="280.08" y="446.49999999999994" as="sourcePoint"/>
                        <mxPoint x="388.79999999999967" y="204.25" as="targetPoint"/>
                    </mxGeometry>
                </mxCell>
                <mxCell id="vNsNvMxjZOVm_oqjdoPh-33" value="Use" style="endArrow=open;endSize=12;dashed=1;html=1;strokeWidth=5;fontSize=18;entryX=0.88;entryY=0.013;entryDx=0;entryDy=0;entryPerimeter=0;exitX=0.4;exitY=0.99;exitDx=0;exitDy=0;exitPerimeter=0;" parent="wCDfZKwV8gHTYz6PKGLF-1" source="20AoWpjKIzzLmUscgVsC-3" target="vNsNvMxjZOVm_oqjdoPh-28" edge="1">
                    <mxGeometry width="160" relative="1" as="geometry">
                        <mxPoint x="510" y="550" as="sourcePoint"/>
                        <mxPoint x="670" y="550" as="targetPoint"/>
                    </mxGeometry>
                </mxCell>
                <mxCell id="vNsNvMxjZOVm_oqjdoPh-38" value="Use" style="endArrow=open;endSize=12;dashed=1;html=1;strokeWidth=5;fontSize=18;entryX=-0.018;entryY=0.157;entryDx=0;entryDy=0;entryPerimeter=0;exitX=1.005;exitY=0.129;exitDx=0;exitDy=0;exitPerimeter=0;" parent="wCDfZKwV8gHTYz6PKGLF-1" source="vNsNvMxjZOVm_oqjdoPh-29" target="vNsNvMxjZOVm_oqjdoPh-34" edge="1">
                    <mxGeometry width="160" relative="1" as="geometry">
                        <mxPoint x="510" y="550" as="sourcePoint"/>
                        <mxPoint x="670" y="550" as="targetPoint"/>
                    </mxGeometry>
                </mxCell>
                <mxCell id="vNsNvMxjZOVm_oqjdoPh-28" value="ServiceMethod" style="swimlane;fontStyle=1;align=center;verticalAlign=top;childLayout=stackLayout;horizontal=1;startSize=26;horizontalStack=0;resizeParent=1;resizeParentMax=0;resizeLast=0;collapsible=1;marginBottom=0;fontSize=18;" parent="wCDfZKwV8gHTYz6PKGLF-1" vertex="1">
                    <mxGeometry x="280" y="800" width="160" height="86" as="geometry"/>
                </mxCell>
                <mxCell id="vNsNvMxjZOVm_oqjdoPh-29" value="+ field: type" style="text;strokeColor=none;fillColor=none;align=left;verticalAlign=top;spacingLeft=4;spacingRight=4;overflow=hidden;rotatable=0;points=[[0,0.5],[1,0.5]];portConstraint=eastwest;" parent="vNsNvMxjZOVm_oqjdoPh-28" vertex="1">
                    <mxGeometry y="26" width="160" height="26" as="geometry"/>
                </mxCell>
                <mxCell id="vNsNvMxjZOVm_oqjdoPh-30" value="" style="line;strokeWidth=1;fillColor=none;align=left;verticalAlign=middle;spacingTop=-1;spacingLeft=3;spacingRight=3;rotatable=0;labelPosition=right;points=[];portConstraint=eastwest;" parent="vNsNvMxjZOVm_oqjdoPh-28" vertex="1">
                    <mxGeometry y="52" width="160" height="8" as="geometry"/>
                </mxCell>
                <mxCell id="vNsNvMxjZOVm_oqjdoPh-31" value="+ method(type): type" style="text;strokeColor=none;fillColor=none;align=left;verticalAlign=top;spacingLeft=4;spacingRight=4;overflow=hidden;rotatable=0;points=[[0,0.5],[1,0.5]];portConstraint=eastwest;" parent="vNsNvMxjZOVm_oqjdoPh-28" vertex="1">
                    <mxGeometry y="60" width="160" height="26" as="geometry"/>
                </mxCell>
                <mxCell id="vNsNvMxjZOVm_oqjdoPh-41" value="Use" style="endArrow=open;endSize=12;dashed=1;html=1;strokeWidth=5;fontSize=18;" parent="wCDfZKwV8gHTYz6PKGLF-1" source="vNsNvMxjZOVm_oqjdoPh-34" edge="1">
                    <mxGeometry width="160" relative="1" as="geometry">
                        <mxPoint x="510" y="550" as="sourcePoint"/>
                        <mxPoint x="970" y="950" as="targetPoint"/>
                    </mxGeometry>
                </mxCell>
                <mxCell id="vNsNvMxjZOVm_oqjdoPh-34" value="RequestFactory" style="swimlane;fontStyle=1;align=center;verticalAlign=top;childLayout=stackLayout;horizontal=1;startSize=26;horizontalStack=0;resizeParent=1;resizeParentMax=0;resizeLast=0;collapsible=1;marginBottom=0;fontSize=18;" parent="wCDfZKwV8gHTYz6PKGLF-1" vertex="1">
                    <mxGeometry x="580" y="700" width="160" height="86" as="geometry"/>
                </mxCell>
                <mxCell id="vNsNvMxjZOVm_oqjdoPh-35" value="+ field: type" style="text;strokeColor=none;fillColor=none;align=left;verticalAlign=top;spacingLeft=4;spacingRight=4;overflow=hidden;rotatable=0;points=[[0,0.5],[1,0.5]];portConstraint=eastwest;" parent="vNsNvMxjZOVm_oqjdoPh-34" vertex="1">
                    <mxGeometry y="26" width="160" height="26" as="geometry"/>
                </mxCell>
                <mxCell id="vNsNvMxjZOVm_oqjdoPh-36" value="" style="line;strokeWidth=1;fillColor=none;align=left;verticalAlign=middle;spacingTop=-1;spacingLeft=3;spacingRight=3;rotatable=0;labelPosition=right;points=[];portConstraint=eastwest;" parent="vNsNvMxjZOVm_oqjdoPh-34" vertex="1">
                    <mxGeometry y="52" width="160" height="8" as="geometry"/>
                </mxCell>
                <mxCell id="vNsNvMxjZOVm_oqjdoPh-37" value="+ method(type): type" style="text;strokeColor=none;fillColor=none;align=left;verticalAlign=top;spacingLeft=4;spacingRight=4;overflow=hidden;rotatable=0;points=[[0,0.5],[1,0.5]];portConstraint=eastwest;" parent="vNsNvMxjZOVm_oqjdoPh-34" vertex="1">
                    <mxGeometry y="60" width="160" height="26" as="geometry"/>
                </mxCell>
                <mxCell id="20AoWpjKIzzLmUscgVsC-26" value="ResponseBody" style="swimlane;fontStyle=1;align=center;verticalAlign=top;childLayout=stackLayout;horizontal=1;startSize=26;horizontalStack=0;resizeParent=1;resizeParentMax=0;resizeLast=0;collapsible=1;marginBottom=0;fontSize=17;" parent="wCDfZKwV8gHTYz6PKGLF-1" vertex="1">
                    <mxGeometry x="70" y="980" width="160" height="86" as="geometry"/>
                </mxCell>
                <mxCell id="20AoWpjKIzzLmUscgVsC-27" value="+ field: type" style="text;strokeColor=none;fillColor=none;align=left;verticalAlign=top;spacingLeft=4;spacingRight=4;overflow=hidden;rotatable=0;points=[[0,0.5],[1,0.5]];portConstraint=eastwest;" parent="20AoWpjKIzzLmUscgVsC-26" vertex="1">
                    <mxGeometry y="26" width="160" height="26" as="geometry"/>
                </mxCell>
                <mxCell id="20AoWpjKIzzLmUscgVsC-28" value="" style="line;strokeWidth=1;fillColor=none;align=left;verticalAlign=middle;spacingTop=-1;spacingLeft=3;spacingRight=3;rotatable=0;labelPosition=right;points=[];portConstraint=eastwest;" parent="20AoWpjKIzzLmUscgVsC-26" vertex="1">
                    <mxGeometry y="52" width="160" height="8" as="geometry"/>
                </mxCell>
                <mxCell id="20AoWpjKIzzLmUscgVsC-29" value="+ method(type): type" style="text;strokeColor=none;fillColor=none;align=left;verticalAlign=top;spacingLeft=4;spacingRight=4;overflow=hidden;rotatable=0;points=[[0,0.5],[1,0.5]];portConstraint=eastwest;" parent="20AoWpjKIzzLmUscgVsC-26" vertex="1">
                    <mxGeometry y="60" width="160" height="26" as="geometry"/>
                </mxCell>
                <mxCell id="20AoWpjKIzzLmUscgVsC-30" value="Response" style="swimlane;fontStyle=1;align=center;verticalAlign=top;childLayout=stackLayout;horizontal=1;startSize=26;horizontalStack=0;resizeParent=1;resizeParentMax=0;resizeLast=0;collapsible=1;marginBottom=0;fontSize=17;" parent="wCDfZKwV8gHTYz6PKGLF-1" vertex="1">
                    <mxGeometry x="440" y="1020" width="160" height="86" as="geometry"/>
                </mxCell>
                <mxCell id="20AoWpjKIzzLmUscgVsC-31" value="+ field: type" style="text;strokeColor=none;fillColor=none;align=left;verticalAlign=top;spacingLeft=4;spacingRight=4;overflow=hidden;rotatable=0;points=[[0,0.5],[1,0.5]];portConstraint=eastwest;" parent="20AoWpjKIzzLmUscgVsC-30" vertex="1">
                    <mxGeometry y="26" width="160" height="26" as="geometry"/>
                </mxCell>
                <mxCell id="20AoWpjKIzzLmUscgVsC-32" value="" style="line;strokeWidth=1;fillColor=none;align=left;verticalAlign=middle;spacingTop=-1;spacingLeft=3;spacingRight=3;rotatable=0;labelPosition=right;points=[];portConstraint=eastwest;" parent="20AoWpjKIzzLmUscgVsC-30" vertex="1">
                    <mxGeometry y="52" width="160" height="8" as="geometry"/>
                </mxCell>
                <mxCell id="20AoWpjKIzzLmUscgVsC-33" value="+ method(type): type" style="text;strokeColor=none;fillColor=none;align=left;verticalAlign=top;spacingLeft=4;spacingRight=4;overflow=hidden;rotatable=0;points=[[0,0.5],[1,0.5]];portConstraint=eastwest;" parent="20AoWpjKIzzLmUscgVsC-30" vertex="1">
                    <mxGeometry y="60" width="160" height="26" as="geometry"/>
                </mxCell>
                <mxCell id="vNsNvMxjZOVm_oqjdoPh-42" value="Use" style="endArrow=open;endSize=12;dashed=1;html=1;strokeWidth=5;fontSize=18;exitX=-0.002;exitY=0.814;exitDx=0;exitDy=0;exitPerimeter=0;entryX=1.011;entryY=-0.048;entryDx=0;entryDy=0;entryPerimeter=0;" parent="wCDfZKwV8gHTYz6PKGLF-1" source="20AoWpjKIzzLmUscgVsC-17" target="20AoWpjKIzzLmUscgVsC-33" edge="1">
                    <mxGeometry width="160" relative="1" as="geometry">
                        <mxPoint x="510" y="700" as="sourcePoint"/>
                        <mxPoint x="670" y="700" as="targetPoint"/>
                    </mxGeometry>
                </mxCell>
                <mxCell id="vNsNvMxjZOVm_oqjdoPh-43" value="Use" style="endArrow=open;endSize=12;dashed=1;html=1;strokeWidth=5;fontSize=18;entryX=1;entryY=0.5;entryDx=0;entryDy=0;exitX=0;exitY=0.5;exitDx=0;exitDy=0;" parent="wCDfZKwV8gHTYz6PKGLF-1" source="20AoWpjKIzzLmUscgVsC-31" target="20AoWpjKIzzLmUscgVsC-27" edge="1">
                    <mxGeometry width="160" relative="1" as="geometry">
                        <mxPoint x="510" y="700" as="sourcePoint"/>
                        <mxPoint x="670" y="700" as="targetPoint"/>
                    </mxGeometry>
                </mxCell>
                <mxCell id="vNsNvMxjZOVm_oqjdoPh-44" value="&lt;font color=&quot;#ffffff&quot;&gt;Use&lt;/font&gt;" style="endArrow=open;endSize=12;dashed=1;html=1;strokeWidth=5;fontSize=18;entryX=0;entryY=0.5;entryDx=0;entryDy=0;exitX=1;exitY=0;exitDx=0;exitDy=0;fontColor=#FF3333;labelBorderColor=none;fillColor=#0050ef;strokeColor=#001DBC;" parent="wCDfZKwV8gHTYz6PKGLF-1" source="20AoWpjKIzzLmUscgVsC-26" target="vNsNvMxjZOVm_oqjdoPh-14" edge="1">
                    <mxGeometry width="160" relative="1" as="geometry">
                        <mxPoint x="510" y="850" as="sourcePoint"/>
                        <mxPoint x="670" y="850" as="targetPoint"/>
                    </mxGeometry>
                </mxCell>
            </root>
        </mxGraphModel>
    </diagram>
    <diagram id="ak836qcVXwlu2fPpaGX7" name="OKHttp">
        <mxGraphModel dx="1762" dy="1021" grid="1" gridSize="10" guides="1" tooltips="1" connect="1" arrows="1" fold="1" page="1" pageScale="1" pageWidth="827" pageHeight="1169" math="0" shadow="0">
            <root>
                <mxCell id="du7k9psl1M5D_hBbCGzv-0"/>
                <mxCell id="du7k9psl1M5D_hBbCGzv-1" parent="du7k9psl1M5D_hBbCGzv-0"/>
            </root>
        </mxGraphModel>
    </diagram>
    <diagram id="jUIaS4TpNbHCpJHSuxwT" name="MMKV">
        <mxGraphModel dx="2073" dy="1201" grid="1" gridSize="10" guides="1" tooltips="1" connect="1" arrows="1" fold="1" page="1" pageScale="1" pageWidth="827" pageHeight="1169" math="0" shadow="0">
            <root>
                <mxCell id="CkOaGoNGE6JGmjUYm_Gq-0"/>
                <mxCell id="CkOaGoNGE6JGmjUYm_Gq-1" parent="CkOaGoNGE6JGmjUYm_Gq-0"/>
                <mxCell id="CkOaGoNGE6JGmjUYm_Gq-25" value="" style="group" parent="CkOaGoNGE6JGmjUYm_Gq-1" vertex="1" connectable="0">
                    <mxGeometry x="40" y="40" width="720" height="520" as="geometry"/>
                </mxCell>
                <mxCell id="CkOaGoNGE6JGmjUYm_Gq-23" value="" style="group" parent="CkOaGoNGE6JGmjUYm_Gq-25" vertex="1" connectable="0">
                    <mxGeometry width="720" height="520" as="geometry"/>
                </mxCell>
                <mxCell id="CkOaGoNGE6JGmjUYm_Gq-2" value="Context" style="rounded=0;whiteSpace=wrap;html=1;fillColor=#60a917;strokeColor=#2D7600;fontColor=#ffffff;" parent="CkOaGoNGE6JGmjUYm_Gq-23" vertex="1">
                    <mxGeometry x="119.99999999999997" width="180" height="57.777777777777786" as="geometry"/>
                </mxCell>
                <mxCell id="CkOaGoNGE6JGmjUYm_Gq-3" value="getSharePreferences" style="rounded=0;whiteSpace=wrap;html=1;fillColor=#6a00ff;strokeColor=#3700CC;fontColor=#ffffff;" parent="CkOaGoNGE6JGmjUYm_Gq-23" vertex="1">
                    <mxGeometry y="462.2222222222223" width="720" height="57.777777777777786" as="geometry"/>
                </mxCell>
                <mxCell id="CkOaGoNGE6JGmjUYm_Gq-4" value="Service" style="rounded=0;whiteSpace=wrap;html=1;fillColor=#d80073;strokeColor=#A50040;fontColor=#ffffff;" parent="CkOaGoNGE6JGmjUYm_Gq-23" vertex="1">
                    <mxGeometry x="539.9999999999999" y="231.11111111111114" width="180" height="57.777777777777786" as="geometry"/>
                </mxCell>
                <mxCell id="CkOaGoNGE6JGmjUYm_Gq-21" style="edgeStyle=orthogonalEdgeStyle;rounded=0;jumpStyle=none;orthogonalLoop=1;jettySize=auto;html=1;entryX=0.5;entryY=1;entryDx=0;entryDy=0;" parent="CkOaGoNGE6JGmjUYm_Gq-23" source="CkOaGoNGE6JGmjUYm_Gq-3" target="CkOaGoNGE6JGmjUYm_Gq-4" edge="1">
                    <mxGeometry relative="1" as="geometry"/>
                </mxCell>
                <mxCell id="CkOaGoNGE6JGmjUYm_Gq-12" style="edgeStyle=orthogonalEdgeStyle;rounded=0;orthogonalLoop=1;jettySize=auto;html=1;exitX=0.5;exitY=0;exitDx=0;exitDy=0;" parent="CkOaGoNGE6JGmjUYm_Gq-23" source="CkOaGoNGE6JGmjUYm_Gq-5" edge="1">
                    <mxGeometry relative="1" as="geometry">
                        <mxPoint x="209.99999999999997" y="57.777777777777786" as="targetPoint"/>
                    </mxGeometry>
                </mxCell>
                <mxCell id="CkOaGoNGE6JGmjUYm_Gq-5" value="ContextWrapper" style="rounded=0;whiteSpace=wrap;html=1;fillColor=#60a917;strokeColor=#2D7600;fontColor=#ffffff;" parent="CkOaGoNGE6JGmjUYm_Gq-23" vertex="1">
                    <mxGeometry x="299.99999999999994" y="115.55555555555557" width="180" height="57.777777777777786" as="geometry"/>
                </mxCell>
                <mxCell id="CkOaGoNGE6JGmjUYm_Gq-15" style="edgeStyle=orthogonalEdgeStyle;rounded=0;orthogonalLoop=1;jettySize=auto;html=1;exitX=0.5;exitY=0;exitDx=0;exitDy=0;entryX=0.5;entryY=1;entryDx=0;entryDy=0;" parent="CkOaGoNGE6JGmjUYm_Gq-23" source="CkOaGoNGE6JGmjUYm_Gq-4" target="CkOaGoNGE6JGmjUYm_Gq-5" edge="1">
                    <mxGeometry relative="1" as="geometry"/>
                </mxCell>
                <mxCell id="CkOaGoNGE6JGmjUYm_Gq-16" style="edgeStyle=orthogonalEdgeStyle;rounded=0;orthogonalLoop=1;jettySize=auto;html=1;exitX=0.5;exitY=0;exitDx=0;exitDy=0;" parent="CkOaGoNGE6JGmjUYm_Gq-23" source="CkOaGoNGE6JGmjUYm_Gq-6" target="CkOaGoNGE6JGmjUYm_Gq-5" edge="1">
                    <mxGeometry relative="1" as="geometry"/>
                </mxCell>
                <mxCell id="CkOaGoNGE6JGmjUYm_Gq-6" value="ContextThemeWrapper" style="rounded=0;whiteSpace=wrap;html=1;fillColor=#60a917;strokeColor=#2D7600;fontColor=#ffffff;" parent="CkOaGoNGE6JGmjUYm_Gq-23" vertex="1">
                    <mxGeometry y="231.11111111111114" width="239.99999999999994" height="57.777777777777786" as="geometry"/>
                </mxCell>
                <mxCell id="CkOaGoNGE6JGmjUYm_Gq-14" style="edgeStyle=orthogonalEdgeStyle;rounded=0;orthogonalLoop=1;jettySize=auto;html=1;entryX=0.5;entryY=1;entryDx=0;entryDy=0;" parent="CkOaGoNGE6JGmjUYm_Gq-23" source="CkOaGoNGE6JGmjUYm_Gq-7" target="CkOaGoNGE6JGmjUYm_Gq-5" edge="1">
                    <mxGeometry relative="1" as="geometry"/>
                </mxCell>
                <mxCell id="CkOaGoNGE6JGmjUYm_Gq-7" value="Application" style="rounded=0;whiteSpace=wrap;html=1;fillColor=#d80073;strokeColor=#A50040;fontColor=#ffffff;" parent="CkOaGoNGE6JGmjUYm_Gq-23" vertex="1">
                    <mxGeometry x="299.99999999999994" y="231.11111111111114" width="180" height="57.777777777777786" as="geometry"/>
                </mxCell>
                <mxCell id="CkOaGoNGE6JGmjUYm_Gq-20" style="edgeStyle=orthogonalEdgeStyle;rounded=0;jumpStyle=none;orthogonalLoop=1;jettySize=auto;html=1;" parent="CkOaGoNGE6JGmjUYm_Gq-23" source="CkOaGoNGE6JGmjUYm_Gq-3" target="CkOaGoNGE6JGmjUYm_Gq-7" edge="1">
                    <mxGeometry relative="1" as="geometry"/>
                </mxCell>
                <mxCell id="CkOaGoNGE6JGmjUYm_Gq-11" style="edgeStyle=orthogonalEdgeStyle;rounded=0;orthogonalLoop=1;jettySize=auto;html=1;exitX=0.5;exitY=0;exitDx=0;exitDy=0;" parent="CkOaGoNGE6JGmjUYm_Gq-23" source="CkOaGoNGE6JGmjUYm_Gq-8" target="CkOaGoNGE6JGmjUYm_Gq-2" edge="1">
                    <mxGeometry relative="1" as="geometry"/>
                </mxCell>
                <mxCell id="CkOaGoNGE6JGmjUYm_Gq-8" value="ContextImpl" style="rounded=0;whiteSpace=wrap;html=1;fillColor=#60a917;strokeColor=#2D7600;fontColor=#ffffff;" parent="CkOaGoNGE6JGmjUYm_Gq-23" vertex="1">
                    <mxGeometry y="115.55555555555557" width="180" height="57.777777777777786" as="geometry"/>
                </mxCell>
                <mxCell id="CkOaGoNGE6JGmjUYm_Gq-17" style="edgeStyle=orthogonalEdgeStyle;rounded=0;orthogonalLoop=1;jettySize=auto;html=1;entryX=1;entryY=0.5;entryDx=0;entryDy=0;jumpStyle=none;dashed=1;" parent="CkOaGoNGE6JGmjUYm_Gq-23" source="CkOaGoNGE6JGmjUYm_Gq-5" target="CkOaGoNGE6JGmjUYm_Gq-8" edge="1">
                    <mxGeometry relative="1" as="geometry"/>
                </mxCell>
                <mxCell id="CkOaGoNGE6JGmjUYm_Gq-19" style="edgeStyle=orthogonalEdgeStyle;rounded=0;jumpStyle=none;orthogonalLoop=1;jettySize=auto;html=1;entryX=0.5;entryY=1;entryDx=0;entryDy=0;" parent="CkOaGoNGE6JGmjUYm_Gq-23" source="CkOaGoNGE6JGmjUYm_Gq-9" target="CkOaGoNGE6JGmjUYm_Gq-6" edge="1">
                    <mxGeometry relative="1" as="geometry"/>
                </mxCell>
                <mxCell id="CkOaGoNGE6JGmjUYm_Gq-9" value="Activity" style="rounded=0;whiteSpace=wrap;html=1;fillColor=#d80073;strokeColor=#A50040;fontColor=#ffffff;" parent="CkOaGoNGE6JGmjUYm_Gq-23" vertex="1">
                    <mxGeometry y="346.66666666666674" width="239.99999999999994" height="57.777777777777786" as="geometry"/>
                </mxCell>
                <mxCell id="CkOaGoNGE6JGmjUYm_Gq-22" style="edgeStyle=orthogonalEdgeStyle;rounded=0;jumpStyle=none;orthogonalLoop=1;jettySize=auto;html=1;entryX=0.5;entryY=1;entryDx=0;entryDy=0;" parent="CkOaGoNGE6JGmjUYm_Gq-23" source="CkOaGoNGE6JGmjUYm_Gq-3" target="CkOaGoNGE6JGmjUYm_Gq-9" edge="1">
                    <mxGeometry relative="1" as="geometry"/>
                </mxCell>
                <mxCell id="CkOaGoNGE6JGmjUYm_Gq-24" value="SharePreference 获取" style="text;html=1;align=center;verticalAlign=middle;resizable=0;points=[];autosize=1;" parent="CkOaGoNGE6JGmjUYm_Gq-25" vertex="1">
                    <mxGeometry x="465" y="60" width="130" height="20" as="geometry"/>
                </mxCell>
                <mxCell id="CkOaGoNGE6JGmjUYm_Gq-32" value="" style="group" parent="CkOaGoNGE6JGmjUYm_Gq-1" vertex="1" connectable="0">
                    <mxGeometry x="60" y="610" width="670" height="320" as="geometry"/>
                </mxCell>
                <mxCell id="CkOaGoNGE6JGmjUYm_Gq-26" value="FileOutputStream" style="rounded=0;whiteSpace=wrap;html=1;" parent="CkOaGoNGE6JGmjUYm_Gq-32" vertex="1">
                    <mxGeometry x="461.07526881720435" y="213.33333333333331" width="172.90322580645162" height="106.66666666666666" as="geometry"/>
                </mxCell>
                <mxCell id="CkOaGoNGE6JGmjUYm_Gq-27" value="XML" style="rounded=1;whiteSpace=wrap;html=1;" parent="CkOaGoNGE6JGmjUYm_Gq-32" vertex="1">
                    <mxGeometry x="244.9462365591398" width="172.90322580645162" height="106.66666666666666" as="geometry"/>
                </mxCell>
                <mxCell id="CkOaGoNGE6JGmjUYm_Gq-28" value="FileinputStream" style="rounded=0;whiteSpace=wrap;html=1;" parent="CkOaGoNGE6JGmjUYm_Gq-32" vertex="1">
                    <mxGeometry y="213.33333333333331" width="172.90322580645162" height="106.66666666666666" as="geometry"/>
                </mxCell>
                <mxCell id="CkOaGoNGE6JGmjUYm_Gq-29" value="" style="endArrow=classic;html=1;exitX=-0.042;exitY=0.637;exitDx=0;exitDy=0;exitPerimeter=0;entryX=0.5;entryY=0;entryDx=0;entryDy=0;" parent="CkOaGoNGE6JGmjUYm_Gq-32" source="CkOaGoNGE6JGmjUYm_Gq-27" target="CkOaGoNGE6JGmjUYm_Gq-28" edge="1">
                    <mxGeometry width="50" height="50" relative="1" as="geometry">
                        <mxPoint x="461.07526881720435" y="177.77777777777777" as="sourcePoint"/>
                        <mxPoint x="533.1182795698925" y="88.88888888888889" as="targetPoint"/>
                    </mxGeometry>
                </mxCell>
                <mxCell id="CkOaGoNGE6JGmjUYm_Gq-30" value="" style="endArrow=classic;html=1;exitX=0.5;exitY=0;exitDx=0;exitDy=0;entryX=1;entryY=0.5;entryDx=0;entryDy=0;" parent="CkOaGoNGE6JGmjUYm_Gq-32" source="CkOaGoNGE6JGmjUYm_Gq-26" target="CkOaGoNGE6JGmjUYm_Gq-27" edge="1">
                    <mxGeometry width="50" height="50" relative="1" as="geometry">
                        <mxPoint x="461.07526881720435" y="177.77777777777777" as="sourcePoint"/>
                        <mxPoint x="533.1182795698925" y="88.88888888888889" as="targetPoint"/>
                    </mxGeometry>
                </mxCell>
                <mxCell id="CkOaGoNGE6JGmjUYm_Gq-31" value="SharePreference读取方式&lt;br&gt;&lt;br&gt;" style="text;html=1;align=center;verticalAlign=middle;resizable=0;points=[];autosize=1;" parent="CkOaGoNGE6JGmjUYm_Gq-32" vertex="1">
                    <mxGeometry x="453.8709677419355" y="44.44444444444444" width="150" height="30" as="geometry"/>
                </mxCell>
                <mxCell id="CkOaGoNGE6JGmjUYm_Gq-51" value="" style="group" vertex="1" connectable="0" parent="CkOaGoNGE6JGmjUYm_Gq-1">
                    <mxGeometry x="827" y="30" width="790" height="200" as="geometry"/>
                </mxCell>
                <mxCell id="CkOaGoNGE6JGmjUYm_Gq-33" value="&lt;b&gt;&lt;font style=&quot;font-size: 18px&quot;&gt;总长度&lt;/font&gt;&lt;/b&gt;" style="rounded=0;whiteSpace=wrap;html=1;sketch=0;strokeColor=#A50040;fillColor=#d80073;fontColor=#ffffff;" parent="CkOaGoNGE6JGmjUYm_Gq-51" vertex="1">
                    <mxGeometry x="30" width="120" height="40" as="geometry"/>
                </mxCell>
                <mxCell id="CkOaGoNGE6JGmjUYm_Gq-34" value="&lt;b&gt;&lt;font style=&quot;font-size: 18px&quot;&gt;key长度&lt;/font&gt;&lt;/b&gt;" style="rounded=0;whiteSpace=wrap;html=1;sketch=0;strokeColor=#A50040;fillColor=#d80073;fontColor=#ffffff;" parent="CkOaGoNGE6JGmjUYm_Gq-51" vertex="1">
                    <mxGeometry x="190" width="120" height="40" as="geometry"/>
                </mxCell>
                <mxCell id="CkOaGoNGE6JGmjUYm_Gq-40" style="edgeStyle=orthogonalEdgeStyle;curved=0;rounded=1;sketch=0;orthogonalLoop=1;jettySize=auto;html=1;entryX=0;entryY=0.5;entryDx=0;entryDy=0;strokeColor=#60E696;fillColor=#F694C1;fontColor=#095C86;strokeWidth=5;" edge="1" parent="CkOaGoNGE6JGmjUYm_Gq-51" source="CkOaGoNGE6JGmjUYm_Gq-33" target="CkOaGoNGE6JGmjUYm_Gq-34">
                    <mxGeometry relative="1" as="geometry"/>
                </mxCell>
                <mxCell id="CkOaGoNGE6JGmjUYm_Gq-36" value="&lt;b&gt;&lt;font style=&quot;font-size: 18px&quot;&gt;value长度&lt;/font&gt;&lt;/b&gt;" style="rounded=0;whiteSpace=wrap;html=1;sketch=0;strokeColor=#A50040;fillColor=#d80073;fontColor=#ffffff;" parent="CkOaGoNGE6JGmjUYm_Gq-51" vertex="1">
                    <mxGeometry x="510" width="120" height="40" as="geometry"/>
                </mxCell>
                <mxCell id="CkOaGoNGE6JGmjUYm_Gq-37" value="&lt;b&gt;&lt;font style=&quot;font-size: 18px&quot;&gt;value&lt;/font&gt;&lt;/b&gt;" style="rounded=0;whiteSpace=wrap;html=1;sketch=0;strokeColor=#A50040;fillColor=#d80073;fontColor=#ffffff;" parent="CkOaGoNGE6JGmjUYm_Gq-51" vertex="1">
                    <mxGeometry x="670" width="120" height="40" as="geometry"/>
                </mxCell>
                <mxCell id="CkOaGoNGE6JGmjUYm_Gq-44" style="edgeStyle=orthogonalEdgeStyle;curved=0;rounded=1;sketch=0;orthogonalLoop=1;jettySize=auto;html=1;strokeColor=#60E696;strokeWidth=5;fillColor=#F694C1;fontColor=#095C86;" edge="1" parent="CkOaGoNGE6JGmjUYm_Gq-51" source="CkOaGoNGE6JGmjUYm_Gq-36" target="CkOaGoNGE6JGmjUYm_Gq-37">
                    <mxGeometry relative="1" as="geometry"/>
                </mxCell>
                <mxCell id="CkOaGoNGE6JGmjUYm_Gq-43" style="edgeStyle=orthogonalEdgeStyle;curved=0;rounded=1;sketch=0;orthogonalLoop=1;jettySize=auto;html=1;entryX=0;entryY=0.5;entryDx=0;entryDy=0;strokeColor=#60E696;strokeWidth=5;fillColor=#F694C1;fontColor=#095C86;" edge="1" parent="CkOaGoNGE6JGmjUYm_Gq-51" source="CkOaGoNGE6JGmjUYm_Gq-38" target="CkOaGoNGE6JGmjUYm_Gq-36">
                    <mxGeometry relative="1" as="geometry"/>
                </mxCell>
                <mxCell id="CkOaGoNGE6JGmjUYm_Gq-38" value="&lt;b&gt;&lt;font style=&quot;font-size: 18px&quot;&gt;key&lt;/font&gt;&lt;/b&gt;" style="rounded=0;whiteSpace=wrap;html=1;sketch=0;strokeColor=#A50040;fillColor=#d80073;fontColor=#ffffff;" parent="CkOaGoNGE6JGmjUYm_Gq-51" vertex="1">
                    <mxGeometry x="350" width="120" height="40" as="geometry"/>
                </mxCell>
                <mxCell id="CkOaGoNGE6JGmjUYm_Gq-41" style="edgeStyle=orthogonalEdgeStyle;curved=0;rounded=1;sketch=0;orthogonalLoop=1;jettySize=auto;html=1;exitX=1;exitY=0.5;exitDx=0;exitDy=0;entryX=0;entryY=0.5;entryDx=0;entryDy=0;strokeColor=#60E696;strokeWidth=5;fillColor=#F694C1;fontColor=#095C86;" edge="1" parent="CkOaGoNGE6JGmjUYm_Gq-51" source="CkOaGoNGE6JGmjUYm_Gq-34" target="CkOaGoNGE6JGmjUYm_Gq-38">
                    <mxGeometry relative="1" as="geometry"/>
                </mxCell>
                <mxCell id="CkOaGoNGE6JGmjUYm_Gq-42" value="&lt;b&gt;&lt;font style=&quot;font-size: 18px&quot;&gt;......&lt;/font&gt;&lt;/b&gt;" style="rounded=0;whiteSpace=wrap;html=1;sketch=0;strokeColor=#A50040;fillColor=#d80073;fontColor=#ffffff;" parent="CkOaGoNGE6JGmjUYm_Gq-51" vertex="1">
                    <mxGeometry x="190" y="160" width="120" height="40" as="geometry"/>
                </mxCell>
                <mxCell id="CkOaGoNGE6JGmjUYm_Gq-13" value="&lt;b&gt;&lt;font style=&quot;font-size: 18px&quot;&gt;key长度&lt;/font&gt;&lt;/b&gt;" style="rounded=0;whiteSpace=wrap;html=1;sketch=0;strokeColor=#A50040;fillColor=#d80073;fontColor=#ffffff;" vertex="1" parent="CkOaGoNGE6JGmjUYm_Gq-51">
                    <mxGeometry x="190" y="80" width="120" height="40" as="geometry"/>
                </mxCell>
                <mxCell id="CkOaGoNGE6JGmjUYm_Gq-45" style="edgeStyle=orthogonalEdgeStyle;curved=0;rounded=1;sketch=0;orthogonalLoop=1;jettySize=auto;html=1;exitX=1;exitY=0.5;exitDx=0;exitDy=0;entryX=0;entryY=0.5;entryDx=0;entryDy=0;strokeColor=#60E696;strokeWidth=5;fillColor=#F694C1;fontColor=#095C86;" edge="1" parent="CkOaGoNGE6JGmjUYm_Gq-51" source="CkOaGoNGE6JGmjUYm_Gq-37" target="CkOaGoNGE6JGmjUYm_Gq-13">
                    <mxGeometry relative="1" as="geometry"/>
                </mxCell>
                <mxCell id="CkOaGoNGE6JGmjUYm_Gq-18" value="&lt;b&gt;&lt;font style=&quot;font-size: 18px&quot;&gt;value长度&lt;/font&gt;&lt;/b&gt;" style="rounded=0;whiteSpace=wrap;html=1;sketch=0;strokeColor=#A50040;fillColor=#d80073;fontColor=#ffffff;" vertex="1" parent="CkOaGoNGE6JGmjUYm_Gq-51">
                    <mxGeometry x="510" y="80" width="120" height="40" as="geometry"/>
                </mxCell>
                <mxCell id="CkOaGoNGE6JGmjUYm_Gq-49" style="edgeStyle=orthogonalEdgeStyle;curved=0;rounded=1;sketch=0;orthogonalLoop=1;jettySize=auto;html=1;exitX=1;exitY=0.5;exitDx=0;exitDy=0;entryX=0;entryY=0.5;entryDx=0;entryDy=0;strokeColor=#60E696;strokeWidth=5;fillColor=#F694C1;fontColor=#095C86;" edge="1" parent="CkOaGoNGE6JGmjUYm_Gq-51" source="CkOaGoNGE6JGmjUYm_Gq-35" target="CkOaGoNGE6JGmjUYm_Gq-42">
                    <mxGeometry relative="1" as="geometry"/>
                </mxCell>
                <mxCell id="CkOaGoNGE6JGmjUYm_Gq-35" value="&lt;b&gt;&lt;font style=&quot;font-size: 18px&quot;&gt;value&lt;/font&gt;&lt;/b&gt;" style="rounded=0;whiteSpace=wrap;html=1;sketch=0;strokeColor=#A50040;fillColor=#d80073;fontColor=#ffffff;" vertex="1" parent="CkOaGoNGE6JGmjUYm_Gq-51">
                    <mxGeometry x="670" y="80" width="120" height="40" as="geometry"/>
                </mxCell>
                <mxCell id="CkOaGoNGE6JGmjUYm_Gq-48" style="edgeStyle=orthogonalEdgeStyle;curved=0;rounded=1;sketch=0;orthogonalLoop=1;jettySize=auto;html=1;strokeColor=#60E696;strokeWidth=5;fillColor=#F694C1;fontColor=#095C86;" edge="1" parent="CkOaGoNGE6JGmjUYm_Gq-51" source="CkOaGoNGE6JGmjUYm_Gq-18" target="CkOaGoNGE6JGmjUYm_Gq-35">
                    <mxGeometry relative="1" as="geometry"/>
                </mxCell>
                <mxCell id="CkOaGoNGE6JGmjUYm_Gq-47" style="edgeStyle=orthogonalEdgeStyle;curved=0;rounded=1;sketch=0;orthogonalLoop=1;jettySize=auto;html=1;strokeColor=#60E696;strokeWidth=5;fillColor=#F694C1;fontColor=#095C86;" edge="1" parent="CkOaGoNGE6JGmjUYm_Gq-51" source="CkOaGoNGE6JGmjUYm_Gq-39" target="CkOaGoNGE6JGmjUYm_Gq-18">
                    <mxGeometry relative="1" as="geometry"/>
                </mxCell>
                <mxCell id="CkOaGoNGE6JGmjUYm_Gq-39" value="&lt;b&gt;&lt;font style=&quot;font-size: 18px&quot;&gt;key&lt;/font&gt;&lt;/b&gt;" style="rounded=0;whiteSpace=wrap;html=1;sketch=0;strokeColor=#A50040;fillColor=#d80073;fontColor=#ffffff;" vertex="1" parent="CkOaGoNGE6JGmjUYm_Gq-51">
                    <mxGeometry x="350" y="80" width="120" height="40" as="geometry"/>
                </mxCell>
                <mxCell id="CkOaGoNGE6JGmjUYm_Gq-46" style="edgeStyle=orthogonalEdgeStyle;curved=0;rounded=1;sketch=0;orthogonalLoop=1;jettySize=auto;html=1;entryX=0;entryY=0.5;entryDx=0;entryDy=0;strokeColor=#60E696;strokeWidth=5;fillColor=#F694C1;fontColor=#095C86;" edge="1" parent="CkOaGoNGE6JGmjUYm_Gq-51" source="CkOaGoNGE6JGmjUYm_Gq-13" target="CkOaGoNGE6JGmjUYm_Gq-39">
                    <mxGeometry relative="1" as="geometry"/>
                </mxCell>
                <mxCell id="CkOaGoNGE6JGmjUYm_Gq-50" value="MMKV存储结构" style="text;html=1;align=center;verticalAlign=middle;resizable=0;points=[];autosize=1;fontStyle=1;fontColor=#FFFFFF;fontSize=20;" vertex="1" parent="CkOaGoNGE6JGmjUYm_Gq-51">
                    <mxGeometry y="120" width="160" height="30" as="geometry"/>
                </mxCell>
                <mxCell id="CkOaGoNGE6JGmjUYm_Gq-70" value="" style="group" vertex="1" connectable="0" parent="CkOaGoNGE6JGmjUYm_Gq-1">
                    <mxGeometry x="880" y="280" width="700" height="360" as="geometry"/>
                </mxCell>
                <mxCell id="CkOaGoNGE6JGmjUYm_Gq-68" value="" style="group" vertex="1" connectable="0" parent="CkOaGoNGE6JGmjUYm_Gq-70">
                    <mxGeometry width="700" height="360" as="geometry"/>
                </mxCell>
                <mxCell id="CkOaGoNGE6JGmjUYm_Gq-52" value="保存数据" style="rounded=1;whiteSpace=wrap;html=1;sketch=0;strokeColor=#AF45ED;fillColor=#F694C1;fontSize=20;fontColor=#FFFFFF;" vertex="1" parent="CkOaGoNGE6JGmjUYm_Gq-68">
                    <mxGeometry width="120" height="280" as="geometry"/>
                </mxCell>
                <mxCell id="CkOaGoNGE6JGmjUYm_Gq-53" value="&amp;lt;=0x7f" style="rounded=1;whiteSpace=wrap;html=1;sketch=0;strokeColor=#2D7600;fillColor=#60a917;fontSize=20;fontColor=#ffffff;" vertex="1" parent="CkOaGoNGE6JGmjUYm_Gq-68">
                    <mxGeometry x="160" width="120" height="120" as="geometry"/>
                </mxCell>
                <mxCell id="CkOaGoNGE6JGmjUYm_Gq-58" style="edgeStyle=orthogonalEdgeStyle;curved=0;rounded=1;sketch=0;orthogonalLoop=1;jettySize=auto;html=1;entryX=0.083;entryY=0.5;entryDx=0;entryDy=0;entryPerimeter=0;strokeColor=#60E696;strokeWidth=5;fillColor=#F694C1;fontSize=20;fontColor=#FFFFFF;" edge="1" parent="CkOaGoNGE6JGmjUYm_Gq-68" source="CkOaGoNGE6JGmjUYm_Gq-52" target="CkOaGoNGE6JGmjUYm_Gq-53">
                    <mxGeometry relative="1" as="geometry"/>
                </mxCell>
                <mxCell id="CkOaGoNGE6JGmjUYm_Gq-54" value="写入" style="rounded=1;whiteSpace=wrap;html=1;sketch=0;strokeColor=#006EAF;fillColor=#1ba1e2;fontSize=20;fontColor=#ffffff;" vertex="1" parent="CkOaGoNGE6JGmjUYm_Gq-68">
                    <mxGeometry x="361" width="239" height="120" as="geometry"/>
                </mxCell>
                <mxCell id="CkOaGoNGE6JGmjUYm_Gq-61" style="edgeStyle=orthogonalEdgeStyle;curved=0;rounded=1;sketch=0;orthogonalLoop=1;jettySize=auto;html=1;exitX=1;exitY=0.5;exitDx=0;exitDy=0;strokeColor=#60E696;strokeWidth=5;fillColor=#F694C1;fontSize=20;fontColor=#FFFFFF;" edge="1" parent="CkOaGoNGE6JGmjUYm_Gq-68" source="CkOaGoNGE6JGmjUYm_Gq-53" target="CkOaGoNGE6JGmjUYm_Gq-54">
                    <mxGeometry relative="1" as="geometry"/>
                </mxCell>
                <mxCell id="CkOaGoNGE6JGmjUYm_Gq-56" value="&amp;lt;=0x7f" style="rounded=1;whiteSpace=wrap;html=1;sketch=0;strokeColor=#2D7600;fillColor=#60a917;fontSize=20;fontColor=#ffffff;" vertex="1" parent="CkOaGoNGE6JGmjUYm_Gq-68">
                    <mxGeometry x="160" y="160" width="120" height="120" as="geometry"/>
                </mxCell>
                <mxCell id="CkOaGoNGE6JGmjUYm_Gq-59" style="edgeStyle=orthogonalEdgeStyle;curved=0;rounded=1;sketch=0;orthogonalLoop=1;jettySize=auto;html=1;strokeColor=#60E696;strokeWidth=5;fillColor=#F694C1;fontSize=20;fontColor=#FFFFFF;" edge="1" parent="CkOaGoNGE6JGmjUYm_Gq-68" source="CkOaGoNGE6JGmjUYm_Gq-52" target="CkOaGoNGE6JGmjUYm_Gq-56">
                    <mxGeometry relative="1" as="geometry"/>
                </mxCell>
                <mxCell id="CkOaGoNGE6JGmjUYm_Gq-64" style="edgeStyle=orthogonalEdgeStyle;curved=0;rounded=1;sketch=0;orthogonalLoop=1;jettySize=auto;html=1;entryX=0.5;entryY=1;entryDx=0;entryDy=0;strokeColor=#60E696;strokeWidth=5;fillColor=#F694C1;fontSize=20;fontColor=#FFFFFF;" edge="1" parent="CkOaGoNGE6JGmjUYm_Gq-68" source="CkOaGoNGE6JGmjUYm_Gq-57" target="CkOaGoNGE6JGmjUYm_Gq-52">
                    <mxGeometry relative="1" as="geometry">
                        <Array as="points">
                            <mxPoint x="700" y="215"/>
                            <mxPoint x="700" y="360"/>
                            <mxPoint x="60" y="360"/>
                        </Array>
                    </mxGeometry>
                </mxCell>
                <mxCell id="CkOaGoNGE6JGmjUYm_Gq-57" value="写入低7位&lt;br&gt;将前1位设为1&lt;br&gt;&amp;gt;&amp;gt;7位继续处理高位数据" style="rounded=1;whiteSpace=wrap;html=1;sketch=0;strokeColor=#006EAF;fillColor=#1ba1e2;fontSize=20;fontColor=#ffffff;" vertex="1" parent="CkOaGoNGE6JGmjUYm_Gq-68">
                    <mxGeometry x="361" y="160" width="229" height="110" as="geometry"/>
                </mxCell>
                <mxCell id="CkOaGoNGE6JGmjUYm_Gq-62" style="edgeStyle=orthogonalEdgeStyle;curved=0;rounded=1;sketch=0;orthogonalLoop=1;jettySize=auto;html=1;exitX=1;exitY=0.5;exitDx=0;exitDy=0;entryX=0.039;entryY=0.544;entryDx=0;entryDy=0;entryPerimeter=0;strokeColor=#60E696;strokeWidth=5;fillColor=#F694C1;fontSize=20;fontColor=#FFFFFF;" edge="1" parent="CkOaGoNGE6JGmjUYm_Gq-68" source="CkOaGoNGE6JGmjUYm_Gq-56" target="CkOaGoNGE6JGmjUYm_Gq-57">
                    <mxGeometry relative="1" as="geometry"/>
                </mxCell>
                <mxCell id="CkOaGoNGE6JGmjUYm_Gq-60" value="&lt;b&gt;1&lt;/b&gt;" style="text;html=1;align=center;verticalAlign=middle;resizable=0;points=[];autosize=1;fontSize=20;fontColor=#ffffff;fillColor=#a20025;strokeColor=#6F0000;" vertex="1" parent="CkOaGoNGE6JGmjUYm_Gq-68">
                    <mxGeometry x="140" y="125" width="30" height="30" as="geometry"/>
                </mxCell>
                <mxCell id="CkOaGoNGE6JGmjUYm_Gq-65" value="&lt;b&gt;2&lt;/b&gt;" style="text;html=1;align=center;verticalAlign=middle;resizable=0;points=[];autosize=1;fontSize=20;fontColor=#ffffff;fillColor=#a20025;strokeColor=#6F0000;" vertex="1" parent="CkOaGoNGE6JGmjUYm_Gq-68">
                    <mxGeometry x="300" y="170" width="30" height="30" as="geometry"/>
                </mxCell>
                <mxCell id="CkOaGoNGE6JGmjUYm_Gq-66" value="&lt;b&gt;2&lt;/b&gt;" style="text;html=1;align=center;verticalAlign=middle;resizable=0;points=[];autosize=1;fontSize=20;fontColor=#ffffff;fillColor=#a20025;strokeColor=#6F0000;" vertex="1" parent="CkOaGoNGE6JGmjUYm_Gq-68">
                    <mxGeometry x="310" y="5" width="30" height="30" as="geometry"/>
                </mxCell>
                <mxCell id="CkOaGoNGE6JGmjUYm_Gq-67" value="&lt;b&gt;3&lt;/b&gt;" style="text;html=1;align=center;verticalAlign=middle;resizable=0;points=[];autosize=1;fontSize=20;fontColor=#ffffff;fillColor=#a20025;strokeColor=#6F0000;" vertex="1" parent="CkOaGoNGE6JGmjUYm_Gq-68">
                    <mxGeometry x="290" y="320" width="30" height="30" as="geometry"/>
                </mxCell>
                <mxCell id="CkOaGoNGE6JGmjUYm_Gq-69" value="整型编码 Protobuf" style="text;html=1;align=center;verticalAlign=middle;resizable=0;points=[];autosize=1;fontSize=20;fontColor=#FFFFFF;" vertex="1" parent="CkOaGoNGE6JGmjUYm_Gq-70">
                    <mxGeometry x="350" y="305" width="180" height="30" as="geometry"/>
                </mxCell>
            </root>
        </mxGraphModel>
    </diagram>
</mxfile>